<svg xmlns="http://www.w3.org/2000/svg" viewBox="0 0 1200 600" class="h-auto max-h-96 w-full" preserveAspectRatio="xMidYMid meet"><defs><linearGradient id="waveGradient0" x1="0%" y1="0%" x2="100%" y2="100%"><stop offset="0%" stop-color="#241301" stop-opacity="0.7131017602213957"/><stop offset="100%" stop-color="#54330b" stop-opacity="0.49917123215497694"/></linearGradient><linearGradient id="waveGradient1" x1="0%" y1="0%" x2="100%" y2="100%"><stop offset="0%" stop-color="#241301" stop-opacity="0.6131017602213957"/><stop offset="100%" stop-color="#54330b" stop-opacity="0.429171232154977"/></linearGradient><linearGradient id="rainbowGradient" x1="0%" y1="0%" x2="100%" y2="0%"><stop offset="0%" stop-color="#FF6B6B"/><stop offset="16.66%" stop-color="#4ECDC4"/><stop offset="33.33%" stop-color="#45B7D1"/><stop offset="50%" stop-color="#96CEB4"/><stop offset="66.66%" stop-color="#FFEAA7"/><stop offset="83.33%" stop-color="#DDA0DD"/><stop offset="100%" stop-color="#FF6B6B"/></linearGradient></defs><path d="M 0.00 240.00 L 6.00 243.01 L 12.00 246.90 L 18.00 251.50 L 24.00 256.59 L 30.00 261.89 L 36.00 267.11 L 42.00 271.92 L 48.00 276.02 L 54.00 279.11 L 60.00 280.94 L 66.00 281.32 L 72.00 280.13 L 78.00 277.33 L 84.00 272.98 L 90.00 267.19 L 96.00 260.19 L 102.00 252.28 L 108.00 243.81 L 114.00 235.18 L 120.00 226.82 L 126.00 219.16 L 132.00 212.62 L 138.00 207.57 L 144.00 204.34 L 150.00 203.16 L 156.00 204.20 L 162.00 207.50 L 168.00 213.03 L 174.00 220.63 L 180.00 230.07 L 186.00 241.00 L 192.00 253.03 L 198.00 265.71 L 204.00 278.56 L 210.00 291.07 L 216.00 302.79 L 222.00 313.26 L 228.00 322.12 L 234.00 329.05 L 240.00 333.85 L 246.00 336.40 L 252.00 336.69 L 258.00 334.80 L 264.00 330.93 L 270.00 325.35 L 276.00 318.39 L 282.00 310.45 L 288.00 301.95 L 294.00 293.33 L 300.00 285.00 L 306.00 277.36 L 312.00 270.74 L 318.00 265.40 L 324.00 261.56 L 330.00 259.29 L 336.00 258.64 L 342.00 259.52 L 348.00 261.79 L 354.00 265.25 L 360.00 269.62 L 366.00 274.60 L 372.00 279.88 L 378.00 285.15 L 384.00 290.10 L 390.00 294.48 L 396.00 298.09 L 402.00 300.79 L 408.00 302.51 L 414.00 303.24 L 420.00 303.07 L 426.00 302.14 L 432.00 300.64 L 438.00 298.80 L 444.00 296.91 L 450.00 295.23 L 456.00 294.02 L 462.00 293.54 L 468.00 293.99 L 474.00 295.51 L 480.00 298.18 L 486.00 302.01 L 492.00 306.95 L 498.00 312.85 L 504.00 319.52 L 510.00 326.69 L 516.00 334.07 L 522.00 341.34 L 528.00 348.15 L 534.00 354.20 L 540.00 359.17 L 546.00 362.83 L 552.00 364.98 L 558.00 365.50 L 564.00 364.35 L 570.00 361.58 L 576.00 357.30 L 582.00 351.71 L 588.00 345.08 L 594.00 337.73 L 600.00 330.00 L 606.00 322.27 L 612.00 314.92 L 618.00 308.29 L 624.00 302.70 L 630.00 298.42 L 636.00 295.65 L 642.00 294.50 L 648.00 295.02 L 654.00 297.17 L 660.00 300.83 L 666.00 305.80 L 672.00 311.85 L 678.00 318.66 L 684.00 325.93 L 690.00 333.31 L 696.00 340.48 L 702.00 347.15 L 708.00 353.05 L 714.00 357.99 L 720.00 361.82 L 726.00 364.49 L 732.00 366.01 L 738.00 366.46 L 744.00 365.98 L 750.00 364.77 L 756.00 363.09 L 762.00 361.20 L 768.00 359.36 L 774.00 357.86 L 780.00 356.93 L 786.00 356.76 L 792.00 357.49 L 798.00 359.21 L 804.00 361.91 L 810.00 365.52 L 816.00 369.90 L 822.00 374.85 L 828.00 380.12 L 834.00 385.40 L 840.00 390.38 L 846.00 394.75 L 852.00 398.21 L 858.00 400.48 L 864.00 401.36 L 870.00 400.71 L 876.00 398.44 L 882.00 394.60 L 888.00 389.26 L 894.00 382.64 L 900.00 375.00 L 906.00 366.67 L 912.00 358.05 L 918.00 349.55 L 924.00 341.61 L 930.00 334.65 L 936.00 329.07 L 942.00 325.20 L 948.00 323.31 L 954.00 323.60 L 960.00 326.15 L 966.00 330.95 L 972.00 337.88 L 978.00 346.74 L 984.00 357.21 L 990.00 368.93 L 996.00 381.44 L 1002.00 394.29 L 1008.00 406.97 L 1014.00 419.00 L 1020.00 429.93 L 1026.00 439.37 L 1032.00 446.97 L 1038.00 452.50 L 1044.00 455.80 L 1050.00 456.84 L 1056.00 455.66 L 1062.00 452.43 L 1068.00 447.38 L 1074.00 440.84 L 1080.00 433.18 L 1086.00 424.82 L 1092.00 416.19 L 1098.00 407.72 L 1104.00 399.81 L 1110.00 392.81 L 1116.00 387.02 L 1122.00 382.67 L 1128.00 379.87 L 1134.00 378.68 L 1140.00 379.06 L 1146.00 380.89 L 1152.00 383.98 L 1158.00 388.08 L 1164.00 392.89 L 1170.00 398.11 L 1176.00 403.41 L 1182.00 408.50 L 1188.00 413.10 L 1194.00 416.99 L 1200.00 420.00 L 1200.00 600.00 L 0.00 600.00 Z" fill="url(#waveGradient0)" fill-opacity="0.7131017602213957" transform="" class="" style="transition: 0.3s; filter: blur(0px);"/><path d="M 0.00 222.40 L 6.00 225.20 L 12.00 228.79 L 18.00 233.02 L 24.00 237.69 L 30.00 242.55 L 36.00 247.34 L 42.00 251.76 L 48.00 255.54 L 54.00 258.41 L 60.00 260.15 L 66.00 260.58 L 72.00 259.60 L 78.00 257.17 L 84.00 253.34 L 90.00 248.22 L 96.00 242.01 L 102.00 234.98 L 108.00 227.45 L 114.00 219.77 L 120.00 212.34 L 126.00 205.54 L 132.00 199.74 L 138.00 195.29 L 144.00 192.47 L 150.00 191.50 L 156.00 192.52 L 162.00 195.58 L 168.00 200.65 L 174.00 207.58 L 180.00 216.16 L 186.00 226.09 L 192.00 237.01 L 198.00 248.51 L 204.00 260.16 L 210.00 271.52 L 216.00 282.15 L 222.00 291.67 L 228.00 299.73 L 234.00 306.06 L 240.00 310.47 L 246.00 312.85 L 252.00 313.20 L 258.00 311.59 L 264.00 308.20 L 270.00 303.26 L 276.00 297.09 L 282.00 290.03 L 288.00 282.47 L 294.00 274.80 L 300.00 267.40 L 306.00 260.61 L 312.00 254.74 L 318.00 250.03 L 324.00 246.66 L 330.00 244.71 L 336.00 244.21 L 342.00 245.10 L 348.00 247.23 L 354.00 250.43 L 360.00 254.46 L 366.00 259.03 L 372.00 263.88 L 378.00 268.70 L 384.00 273.25 L 390.00 277.28 L 396.00 280.62 L 402.00 283.14 L 408.00 284.78 L 414.00 285.53 L 420.00 285.47 L 426.00 284.72 L 432.00 283.45 L 438.00 281.89 L 444.00 280.28 L 450.00 278.85 L 456.00 277.86 L 462.00 277.52 L 468.00 278.01 L 474.00 279.47 L 480.00 281.96 L 486.00 285.50 L 492.00 290.03 L 498.00 295.44 L 504.00 301.53 L 510.00 308.07 L 516.00 314.81 L 522.00 321.43 L 528.00 327.66 L 534.00 333.19 L 540.00 337.75 L 546.00 341.14 L 552.00 343.16 L 558.00 343.72 L 564.00 342.78 L 570.00 340.37 L 576.00 336.61 L 582.00 331.67 L 588.00 325.80 L 594.00 319.27 L 600.00 312.40 L 606.00 305.53 L 612.00 299.00 L 618.00 293.13 L 624.00 288.19 L 630.00 284.43 L 636.00 282.02 L 642.00 281.08 L 648.00 281.64 L 654.00 283.66 L 660.00 287.05 L 666.00 291.61 L 672.00 297.14 L 678.00 303.37 L 684.00 309.99 L 690.00 316.73 L 696.00 323.27 L 702.00 329.36 L 708.00 334.77 L 714.00 339.30 L 720.00 342.84 L 726.00 345.33 L 732.00 346.79 L 738.00 347.28 L 744.00 346.94 L 750.00 345.95 L 756.00 344.52 L 762.00 342.91 L 768.00 341.35 L 774.00 340.08 L 780.00 339.33 L 786.00 339.27 L 792.00 340.02 L 798.00 341.66 L 804.00 344.18 L 810.00 347.52 L 816.00 351.55 L 822.00 356.10 L 828.00 360.92 L 834.00 365.77 L 840.00 370.34 L 846.00 374.37 L 852.00 377.57 L 858.00 379.70 L 864.00 380.59 L 870.00 380.09 L 876.00 378.14 L 882.00 374.77 L 888.00 370.06 L 894.00 364.19 L 900.00 357.40 L 906.00 350.00 L 912.00 342.33 L 918.00 334.77 L 924.00 327.71 L 930.00 321.54 L 936.00 316.60 L 942.00 313.21 L 948.00 311.60 L 954.00 311.95 L 960.00 314.33 L 966.00 318.74 L 972.00 325.07 L 978.00 333.13 L 984.00 342.65 L 990.00 353.28 L 996.00 364.64 L 1002.00 376.29 L 1008.00 387.79 L 1014.00 398.71 L 1020.00 408.64 L 1026.00 417.22 L 1032.00 424.15 L 1038.00 429.22 L 1044.00 432.28 L 1050.00 433.30 L 1056.00 432.33 L 1062.00 429.51 L 1068.00 425.06 L 1074.00 419.26 L 1080.00 412.46 L 1086.00 405.03 L 1092.00 397.35 L 1098.00 389.82 L 1104.00 382.79 L 1110.00 376.58 L 1116.00 371.46 L 1122.00 367.63 L 1128.00 365.20 L 1134.00 364.22 L 1140.00 364.65 L 1146.00 366.39 L 1152.00 369.26 L 1158.00 373.04 L 1164.00 377.46 L 1170.00 382.25 L 1176.00 387.11 L 1182.00 391.78 L 1188.00 396.01 L 1194.00 399.60 L 1200.00 402.40 L 1200.00 600.00 L 0.00 600.00 Z" fill="url(#waveGradient1)" fill-opacity="0.5631017602213957" transform="" class="" style="transition: 0.3s; filter: blur(0.5px);"/></svg>