<?xml version='1.0' encoding='utf-8'?>
<svg xmlns="http://www.w3.org/2000/svg" enable-background="new 0 0 3602.533 5000" version="1.1" viewBox="0 0 3602.5 5e3"> <path d="m764.49 4917c3.215 3.877 2.423 4.554-5.328 4.554-10.596 0-17.895 7.309-16.386 16.408 4.115 24.849 27.141 5.251 24.04 14.564-2.01 6.03-20.47 6.47-26.912 0.641-11.61-10.508-7.584-26.338 9.406-36.992l10.626-6.661-14.069-0.052c-12.221-0.045-36.355-16.881-35.993-25.109 0.018-0.413 2.068-7.457 4.554-15.654 9.464-31.196 0.167-56.445-20.782-56.445-6.731 0-23.181 14.622-23.321 20.728-0.218 9.545-5.878 10.144-22.334 2.359-61.531-29.107-84.117 20.394-23.922 52.431 14.57 7.754 2.475 15.693-20.646 34.64-16.576-8.527-64.131-37.043-86.515-14.659-21.268 21.265 25.179 42.771 66.461 30.769 12.448-3.619 18.833-4.145 23.032-1.897 8.24 4.411 18.426 18.125 18.426 24.811 0 3.115 2.055 5.663 4.569 5.663s10.372 7.508 17.458 16.686c15.639 20.251 17.868 20.412 38.025 2.781 21.14-18.493 24.082-24.207 16.817-32.657-21.517-25.021-22.137-29.833-6.255-48.433l9.843-11.522c18.732 17.232 27.353 23.76 22.853 39.461-3.813 13.298 10.675 30.647 25.595 30.647 11.616 0 25.938-11.708 25.938-21.205 0-3.844 1.698-6.482 4.422-7.715v-10.645c-1.754-1.038-3.563-2.433-5.655-4.275-9.869-8.699-20.538-11.165-13.947-3.222zm2.107 23.849c-2.444 6.367-13.863 6.51-16.28 0.204-1.011-2.633 0.119-6.747 2.511-9.136 5.772-5.772 16.693 1.315 13.769 8.932zm-192.29-9.081c-29.411 4.032-46.635-0.883-46.635-13.313 0-10.869 33.024-10.799 50.953 0.106 13.246 8.055 12.305 10.93-4.318 13.207zm50.522-52.968c-35.329-23.906-22.273-51.21 16.948-35.444 21.305 8.565 22.292 11.462 10.356 30.38-10.727 16.999-9.895 16.847-27.304 5.064zm12.36 76.332-12.254-11.07c-14.768-13.344 0.835-46.656 19.331-41.27 5.295 1.542 23.069 19.598 23.069 23.439 0 1.916-6.783 9.203-15.074 16.191l-15.072 12.71zm41.565 22.506c-16.04 13.729-26.004 10.365-34.448-11.634-1.855-4.837 24.086-32.305 30.507-32.305 19.048 0 21.632 28.798 3.941 43.939zm-3.886-59.432c-28.956-25.238-32.135-21.898-5.817-56.824 1.205-1.603 14.431 6.552 23.181 14.294l8.195 7.25c-12.056 23.511-13.367 23.905-25.559 35.28zm-2.979-69.133 6.494-11.577c18.862-33.634 41.968 9.961 30.055 28.142-7.592 11.582-7.82 9.263-36.549-16.565z"/> <path d="m598.99 4972.9c-75.205 26.432-156.33 5.082-222.36-58.519-22.829-21.994-25.871-27.653-16.459-30.641 3.054-0.969 12.002-8.21 19.881-16.088l14.328-14.328 17.291 9.054c53.916 28.23 128.15-14.646 128.15-74.018 0-4.74 3.816-13.948 8.48-20.461 21.147-29.53 25.589-65.07 5.817-46.55-21.92 20.532-47.624-30.497-69.415-42.15-4.011-2.146-10.542-10.025-14.513-17.509-9.2-17.343-18.293-15.579-10.988 2.134 6.139 14.886-35.754 8.368-44.473-6.922l-6.337-11.109 6.51-8.276c16.98-21.586-2.689-30.699-12.946-15.047-5.268 8.04-13.569 9.627-23.248 4.448-8.04-4.305-7.912-19.841 0.201-24.183 8.847-4.736 7.52-9.588-1.971-7.205-5.134 1.287-7.354 0.902-6.136-1.069 6.61-10.697 34.385-4.715 42.09 9.063 3.686 6.592 3.853 6.473 5.404-3.825 1.488-9.892 2.441-10.693 13.745-11.61 14.862-1.202 22.698-7.569 20.494-16.647-6.158-25.355-32.578-23.46-34.691 2.49-0.887 10.894-1.743 12.02-8.574 11.27-23.545-2.593-35.459-1.375-45.163 4.618-17.03 10.518-30.565 1.922-30.668-19.474-0.094-19.708 2.031-25.297 9.612-25.297 8.853 0 5.137-6.822-6.868-12.603-17.572-8.459-32.852-32.962-27.401-12.445 1.427 5.359 4.594 8.695 8.847 9.321 6.956 1.017 8.72 4.967 3.625 8.116-1.84 1.135-1.099 4.761 1.91 9.351 4.423 6.756 4.639 29.123 0.322 33.44-1.26 1.257-20.482-4.609-20.482-6.251 0-4.547 11.648-25.892 4.897-25.892-3.413 0-6.61 5.122-16.96 27.167-2.863 6.094-18.933 10.12-21.809 5.465-1.585-2.563-2.823-2.092-4.244 1.609-4.114 10.727-7.196 4.633-6.947-13.748 0.143-10.438-1.454-27.523-3.546-37.967-6.023-30.069 2.081-43.25-4.482-43.25-5.693 0-7.375 19.748-3.489 40.988 5.805 31.758 3.473 71.349-4.202 71.349-1.639 0-2.978-6.357-2.978-14.127 0-22.777-21.566-62.475-29.584-54.459-0.762 0.766 2.651 6.604 7.584 12.977 9.977 12.882 14.643 24.189 17.002 41.188 2.01 14.485-2.523 14.773-7.247 0.458-2.259-6.849-7.268-13.086-13.417-16.714-11.704-6.904-16.844-16.993-16.844-33.045 0-6.503-1.366-12.667-3.036-13.699-5.526-3.416-3.194-13.205 3.665-15.381 6.43-2.041 23.661 13.098 23.661 20.792 0 2.545 14.251 3.917 12.567-5.414-5.659-31.385 1.011-49.125 21.651-57.559 16.553-6.765 18.351-6.169 16.186 5.374-1.394 7.427 0.1 13.969 5.723 25.048 7.867 15.509 9.874 29.952 4.612 33.203-6.71 4.148-9.579 13.688-4.679 15.57 9.021 3.461 28.491-17.613 22.121-23.943-6.78-6.734-6.846-14.388-0.128-14.388 3.71 0 1.551-3.704-7.59-13.019-14.51-14.783-15.178-17.267-6.707-24.933 14.926-13.508-15.056-20.336-37.341-8.504-5.344 2.838-18.6 6.051-29.454 7.138-73.997 7.426-113.43 83.755-72.348 140.03 3.145 4.312 1.554 7.284-10.572 19.735-7.854 8.064-15.044 17.051-15.979 19.975-5.884 18.381-50.716-27.104-77.054-78.181-37.727-73.156-26.08-211.23 14.689-174.17l10.274 9.342-4.961 17.85c-10.095 36.313 1.23 72.591 22.662 72.591 20.792 0 23.873-43.918 4.676-66.643-12.269-14.528-12.412-23.669-0.586-38.101 13.614-16.614 16.954-16.917 25.182-2.28 30.574 54.377 80.081 33.182 53.895-23.071-9.263-19.899-9.752-17.057 4.278-24.942 41.04-23.066-1.266-63.771-43.304-41.668-4.12 2.165-8.428 1.484-15.822-2.496-11.598-6.245-15.591-4.551-10.077 4.278 3.3 5.283 2.65 7.038-5.104 13.787-17.858 15.542-21.071 16.073-33.136 5.477-15.648-13.739-40.345-10.854-54.866 6.403-12.157 14.446-10.035 24.681 7.769 37.472 16.887 12.132 17.549 13.997 9.621 27.037-25.841 42.491-29.241 133.91-6.613 177.61 15.238 29.416 21.294 61.694 62.326 94.437 27.89 22.257 12.302 17.48 7.73 44.896-0.941 5.662-3.765 11.422-6.27 12.8-29.467 16.201-49.45 15.549-65.277 16.375-0.021 11.379-0.995 30.594 5.1 48.578 4.524 13.337 4.618 15.997 0.777 21.906-11.762 18.089 28.786 47.628 55.221 40.226 15.208-4.257 23.141-2.369 20.369 4.854-1.609 4.199-4.897 4.654-21.031 2.927-29.026-3.109-35.264 4.283-69.309 34.758 23.082 21.146 23.951 20.214 18.527 28.491-4.378 6.68-13.232 67.706-10.256 70.682 0.72 0.72 7.293-0.073 14.61-1.761 31.693-7.312 27.24 3.098 64.919-12.661l9.12 10.516c11.185 12.913 15.916 13.556 19.987 2.723 1.728-4.593 8.865-14.221 15.864-21.396 12.728-13.034 12.728-13.071 12.728-36.434 0-12.864 1.026-23.731 2.277-24.146 8.325-2.775 9.163-0.027 7.193 23.591-1.94 23.272-1.691 24.69 5.605 31.986 14.187 14.197 7.815 32.012 29.557 20.773 17.781-9.194 7.58 4.435 41.459 0.604 11.495-1.303 18.864-0.896 20.102 1.105 4.148 6.713 10.7 3.146 10.7-5.833 0-16.753 10.004-43.116 17.433-45.94 7.736-2.942 8.064-3.938 3.865-11.783-2.663-4.976-0.607-6.315 18.66-12.166 23.281-7.071 22.103-7.415 31.303 9.047 20.621 36.898 110.52 79.052 168.23 78.879 36.841-0.109 88.813-10.241 101.86-19.854 9.917-7.313 3.289-8.011-15.001-1.583zm-153.3-408.12c3.015 3.634 3.015 5.474 0 9.108-5.171 6.227-14.114 5.636-16.28 0-4.433-11.555 8.325-18.693 16.28-9.108zm-352.19-98.751c0 13.508-9.849 17.616-17.85 7.445-10.809-13.742-12.372-55.947-2.071-55.947 5.046 0 19.921 36.218 19.921 48.502zm64.518-66.616c-4.594 2.289-9.032 4.387-9.867 4.658-9.725 3.154-39.464-29.12-33.935-36.829 3.938-5.489 26.706-19.547 31.661-19.547 14.992 0 25.561 45.023 12.141 51.718zm-10.964-99.215c25.655-3.036 39.962 20.121 19.094 30.911-11.953 6.182-12.12 6.118-26.578-9.704-14.725-16.115-13.82-18.684 7.484-21.207zm-53.32 21.96c16.219-13.647 22.844-13.444 36.424 1.118 15.09 16.183 15.129 15.955-4.733 27.164-20.227 11.416-19.04 11.516-31.166-2.611-12.154-14.16-12.187-15.858-0.525-25.671zm6.178 42.99c-29.921 34.778-25.514 34.546-40.569 20.281-14.325-13.575-14.233-15.442 1.582-32.915 15.575-17.208 13.166-16.502 38.987 12.634zm-75.858-7.894c-13.994-11.607-9.898-23.002 14.045-39.072 18.493-12.418 33.076 13.684 17.452 31.239-5.845 6.567-10.627 12.962-10.627 14.216-6e-3 5.045-11.23 1.614-20.87-6.383zm366.72 467.94c-5.911-15.552 6.048-37.254 20.53-37.254 9.114 0 8.966 4.922-0.774 25.495-9.33 19.701-15.369 23.296-19.756 11.759zm95.793 28.724c-25.495 12.801-61.971 9.555-77.416-6.886l-7.026-7.478c26.934-29.49 21.312-56.125 37.685-33.13 6.646 9.336 6.771 9.37 27.316 7.305 18.617-1.87 21.174-1.448 26.083 4.287 8.978 10.484 12.454 7.669 14.728-11.914 2.137-18.42 6.458-24.235 18.01-24.235 19.373 0-12.683 58.653-39.38 72.051zm5.427-157.02c6.409 0.079 12.278 5.162 10.077 8.723-1.148 1.858-3.03 3.267-4.184 3.136-8.935-1.021-14.373-11.963-5.893-11.859zm-16.45-10.098c14.001 9.035-11.635 26.629-11.635 33.75 0 4.381 14.048 4.878 16.699 0.592 3.534-5.72 21.417-3.164 31.88 4.554 7.611 5.617 14.081 7.59 24.878 7.59 19.085 0 20.142 9.09 3.136 26.967-13.684 14.385-24.766 17.804-41.495 12.797-23.749-7.107-25.99-7.326-25.99-2.535 0 2.499 4.205 6.282 9.342 8.41 10.827 4.484 19.434 16.028 16.893 22.65-2.243 5.855-5.326 4.051-28.813 1.825-15.867-1.506-20.43-3.233-25.807-9.776-8.058-9.801-17.37-14.795-27.583-14.795-4.284 0-7.791-1.524-7.791-3.388 0-8.137 37.427-1.491 52.477 9.315 15.187 10.908 21.062 11.264 12.117 0.734-12.23-14.391-34.148-22.458-55.073-20.27-15.081 1.579-19.037 1.163-18.02-1.888 2.83-8.486 34.676-11.574 75.67-7.333 54.639 5.652 47.367-9.687 37.248-8.218-36.497 5.284-72.661-7.21-98.229 1.746-7.451 2.608-14.133 4.153-14.856 3.434-3.443-3.446 7.18-9.968 22.039-13.532 18.347-4.402 25.413-7.836 22.376-10.873-2.524-2.523-23.138 5.169-28.536 7.008 5.08-16.225 4.379-19.507 21.469-26.861 26.869-11.561 28.432-27.817 37.604-21.903zm-31.37-8.165c18.244 0 20.804 3.194 9.867 12.314-11.783 9.831-26.566 6.018-26.566-6.85 1e-3 -4.598 2.642-5.464 16.699-5.464zm-43.823-42.615c8.489-4.54 7.239 2.194 0 6.072-10.484 5.614-22.962 3.653-30.792-4.833l-7.359-7.976c12.74 6.477 24.548 14.021 38.151 6.737zm-188.2-25.911c-10.338 9.354-42.743 8.471-42.743-1.166 0-4.026 34.433-21.393 42.418-21.393 8.228 0 8.447 15.208 0.325 22.559zm-7.991-133.5c18.909-5.62 22.355-2.86 16.933 13.572-3.971 12.026-4.092 12.102-16.705 10.375-21.957-3.012-38.735 8.875-25.209 17.855 5.839 3.877 6.664 6.919 6.221 22.938-0.483 17.455 0.079 19.046 10.262 28.935l10.772 10.463c-9.869 3.678-28.075 9.941-36.676 16.477-9.291 7.062-10.873 6.935-16.207-1.327-29.621-45.849-5.544-102.6 50.609-119.29zm-70.466 163.99c18.663-20.506 21.202-21.301 36.212-11.379 27.474 18.165 73.578 9.102 94.725-18.621 4.848-6.358 12.366-11.823 18.651-13.557 16.267-4.492 16.838-13.28 28.422-11.932 30.386 3.534-23.682 78.624-67.196 93.319-34.776 11.744-79.407 7.815-113.81-10.016-12.907-6.688-12.461-10.829 2.996-27.814zm-27.553 52.459c3.941-10.029 6.789-10.247 25.822-1.971 33.173 14.422 90.747 10.578 128.24-8.565 30.288-15.463 45.915-34.042 67.114-79.79 5.413-11.683 25.349-3.3 22.061 9.279-0.914 3.492 0.121 11.744 2.298 18.338l3.956 11.993c-87.101 83.5-85.321 77.282-158.9 77.282v20.442c-21.374-19.313-27.86-28.25-51.013-16.04-6.175 3.257-13.714 6.667-16.75 7.575-8.228 2.466-3.92 13.308 10.38 26.135 6.613 5.933 11.073 11.74 9.907 12.903-7.755 7.757-18.785-1.19-28.018-22.738-3.355-7.824-9.71-16.592-14.124-19.483-8.558-5.606-8.829-15.376-0.974-35.36zm156.61 222.88c-6.197-5.726-9.254-6.847-11.783-4.32-4.001 4.006 3.936 10.25 18.262 23.569-8.933 37.566-6.555 37.952-31.032 37.952-20.16 0-29.317-7.438-29.317-23.818 0-13.827-16.016-10.333-9.376 2.065 7.525 14.077-11.877 28.268-11.877 19.14 0-1.437-3.571-7.87-7.931-14.297-7.569-11.152-7.763-12.439-4.272-28.042 7.196-32.15-6.701-55.932-23.099-39.534-8.149 8.149-9.618 18.782-5.668 41.07 2.104 11.88 1.403 13.826-10.265 28.479-6.889 8.653-12.524 16.918-12.524 18.369 0 5.589-16.699 3.279-16.699-17.521 0-13.848-4.815-13.62-12.773 0.601-7.706 13.772-13.016 15.636-46.085 16.167l-22.425 0.358c6.965-50.817-1.061-45.092 17.661-62.523 13.247-12.336 14.082-18.931 1.91-15.065-6.809 2.156-14.106-7.432-19.947-13.648l11.613-9.792c16.034-13.526 27.273-17.145 42.479-13.69 25.258 5.745 52.131-11.222 39.643-25.024-6.585-7.274-22.364-7.894-34.97-1.375-10.138 5.243-22.4 3.479-31.755-4.563-3.34-2.872-8.559-6.103-11.598-7.18-8.219-2.909-5.417-14.969 3.992-17.173 11.173-2.62 10.948-10.226-0.455-15.335-9.355-4.193-22.134-32.896-16.951-38.076 7.262-7.263 40.326-10.259 48.284-4.375 14.759 10.912 21.384 3.556 8.016-8.899-18.297-17.047 22.778-15.296 31.039 15.402 6.5 24.131 33.458 38.565 46.908 25.115 19.849-19.842-47.75-29.083-16.972-44.996 14.157-7.323 25.237-5.933 36.986 4.639 21.034 18.93 37.214 21.599 25.856 4.266-2.648-4.041-4.816-7.885-4.816-8.538s9.986-1.94 22.191-2.863c17.27-1.306 27.38-4.208 45.557-13.077 51.348-25.051 5.303 8.893 3.13 63.611-0.99 24.923-0.99 24.923-11.218 16.877-13.156-10.347-13.796 0.228-1.063 17.583 5.845 7.967 10.924 16.532 11.288 19.037 1.603 11.006-0.437 21.202-5.201 25.965-5.599 5.596-3.983 6.755-22.908-16.45-12.764-15.651-32.444-0.617-22.106 16.887 6.491 10.985 21.499 21.454 34.485 24.05 8 1.6 11.352 4.818 17.348 16.653 12.494 24.649 7.521 29.947-11.562 12.319zm46.368-17.683c-23.354 6.494-23.828 6.452-27.905-2.496-4.165-9.142-12.916-15.211-26.108-18.11-15.651-3.437-27.848-22.92-14.346-22.92 2.505 0 4.554 1.181 4.554 2.624 0 4.724 24.01 19.386 28.761 17.564 7.032-2.703 2.787-18.686 7.672-21.705 6.564-4.056 3.416-24.86-4.554-30.082-10.262-6.725-9.546-10.332 2.277-11.474 25.258-2.436-12.779-23.441 19.935-85.586 19.857-37.73 56.366-79.116 67.184-76.159 4.269 1.166 13.76 2.298 21.089 2.517 18.642 0.556 34.991 23.169 16.753 23.169-64.397 0-126.59 161.26-80.115 207.74 6.242 6.24 2.371 10.04-15.197 14.922zm25.049-48.079c-24.957-60.626-1.157-127.13 57.532-160.76 25.47-14.595 46.295 1.227 24.286 18.451-6.206 4.858-9.755 10.317-9.755 15.008 0 4.053-1.263 7.369-2.802 7.369-31.828 0-43.444 68.975-18.284 108.56 4.132 6.503 3.44 7.694-13.714 23.53-28.699 26.498-24.466 18.935-37.263-12.163z"/> <path d="m214.56 4888.6c-9.063-3.443-13.675-29.882-9.345-53.561l2.219-12.145c32.345-1.854 30.759-3.607 44.258 10.584 24.245 25.489 6.835-11.441-8.301-17.713-12.327-5.11-14.473-46.004-2.417-46.004 3.859 0 7.858 1.366 8.89 3.036 3.64 5.893 10.626 3.103 10.626-4.248 0-4.005 4.129-15.132 9.175-24.727 21.022-39.961-5.709-0.559-30.635-0.559-12.643 0-14.091 1.882-8.422 10.955 11.553 18.5-31.042 21.751-45.354 3.464-9.108-11.638-31.029-22.619-31.029-15.545 0 1.506 4.011 4.138 8.914 5.848 18.985 6.616 26.578 40.924 10.821 48.891-17.94 9.066-58.579 8.319-60.948-1.124-4.779-19.042-39.02-30.516-48.047-16.101-13.89 22.182 48.642 39.403 103.68 28.552 21.381-4.214 22.443-5.778-45.567 67.059-11.659 12.488-16.331 15.572-21.59 14.255-18.414-4.625-32.037 10.375-24.911 27.425 8.456 20.236 38.176 12.455 38.176-9.998 0-9.813 67.472-85.57 76.214-85.57 1.879 0 3.561 18.041 6.938 74.385 1.189 19.805-3e-3 22.914 9.306 32.954 9.342 10.08 18.29 10.244 24.705 0.456 9.412-14.357 1.221-33.503-17.357-40.569zm-115.9-93.504c-2.38 6.203-15.253 6.598-20.214 0.62-4.749-5.72-2.903-14.999 3.215-16.177 7.269-1.403 19.286 9.597 16.999 15.557zm4.026 121.83c-5.231 6.309-10.198 5.835-16.933-1.603-6.707-7.415-3.164-15.937 7.272-17.488 8.656-1.291 15.445 12.126 9.661 19.091zm91.618-134.41c4.396-4.396 23.682-4.891 23.682-0.607 0 6.31-15.237-0.648-4.375 7.405 5.687 4.217 5.702 4.56 0.395 9.867-5.307 5.308-5.65 5.295-9.837-0.352-2.386-3.218-5.101-5.088-6.03-4.156-3.801 3.801 8.756 11.92 15.73 10.168 8.262-2.074 10.344 5.556 2.35 8.623-18.189 6.979-35.456-17.407-21.915-30.948zm32.187 134.22c-1.181 12.065-9.464 13.866-16.237 3.531-5.507-8.407-4.238-16 3.148-18.836 7.463-2.864 14.106 4.906 13.089 15.305z"/> <path d="m3593.4 4334.9c-24.283-30.641-29.609-32.363-49.535-16.034-14.37 11.774-19.863 12.998-25.874 5.757-2.222-2.681-7.205-6.075-11.076-7.545-20.391-7.754 1.719-34.175 25.911-30.959 28.333 3.765 47.892-32.645 25.164-46.842-25.78-16.098-50.537-4.575-47.868 22.282 2.66 26.803-25.962 48.721-44.999 34.46-7.56-5.662-27.468-6.063-37.536-0.753-24.462 12.898-23.193 38.28 2.295 45.916 6.859 2.055 12.469 4.326 12.469 5.049 0 1.357-10.888 26.238-15.576 35.593-20.643 41.204 27.83 57.793 53.527 18.32 14.562-22.371 14.792-22.419 29.42-6.255 11.983 13.244 13.993 18.757 8.155 22.367-23.105 14.279-26.396 86.296-3.944 86.296 22.732 0 35.675-42.612 23.372-76.936l-5.268-14.698c29.596-27.602 27.793-31.462 39.613 5.666 23.985 75.321 2.426 150.42-62.815 218.8-19.714 20.661-25.658 22.938-30.009 11.495-5.216-13.723-30.606-29.678-25.692-36.345 42.953-58.225 5.733-129.49-66.179-139.7-8.604-1.224-18.044-5.107-23.43-9.64-22.589-19.006-63.316-21.463-45.746-2.76 21.193 22.561-27.805 42.388-41.613 65.76-2.836 4.8-7.478 9.463-10.32 10.365-17.719 5.626-26.466 20.937-10.22 17.889l10.626-1.995c0 38.856 3.629 31.708-24.915 49.726-13.395-12.586-11.926-13.739-34.099-11.668-22.176 2.07-24.48 0.564-24.48-16 0-13.262-9.688-19.414-23.169-14.717-19.113 6.665-14.151 32.806 6.224 32.806 15.096 0 16.426 2.25 11.723 19.829-3.583 13.404-3.331 15.022 4.594 29.21 8.501 15.226 5.772 32.204-5.341 33.225-28.291 2.599-35.468 1.224-37.141-7.12-2.204-11-5.729-10.545-11.774 1.518-5.984 11.944-52.665 59.964-58.291 59.964-2.204 0-7.287-3.54-11.298-7.867-13.681-14.765-19.389 19.702-6.546 39.537 2.238 3.456 4.903 15.387 5.923 26.515 6.018 65.654 73.575 109.76 125.95 82.237 17.686-9.296 24.86-8.635 35.812 3.301 6.02 6.56 12.946 11.446 20.131 16.571 6.231 4.445 9.973 9.961 4.41 17.385-10.715 14.299-27.319 26.067-41.718 36.462-27.182 19.625-56.872 31.705-89.324 39.308-30.97 7.255-63.728 9.387-94.703 0.991-3.902-1.058-7.76-2.275-11.561-3.653-42.486-15.396-37.65-15.406-10.982-40.548l19.698 4.712c32.954 7.885 73.238-5.119 71.176-22.978-2.311-20.021-37.77-21.782-71.717-3.556l-18.484 9.922c-4.618-3.784-27.644-22.146-27.644-24.529 0-3.491 13.177-15.931 16.875-15.931 7.35 0 25.631-23.925 25.631-33.543 0-25.237-29.699-31.136-63.064-12.527-8.629 4.813-11.41 3.091-18.994-11.774-19.966-39.142-57.89-3.619-43.836 41.061l5.377 17.094-11.519 11.795c-10.733 10.994-12.609 11.759-27.535 11.23-38.705-1.366-44.607 50.06-6.564 57.198 19.458 3.649 34.712-12.758 30.875-33.212-3.923-20.919 15.141-40.608 26.97-27.848 19.875 21.445 14.587 22.06-9.06 55.686-5.778 8.216-4.011 10.988 18.19 28.573 19.343 15.324 25.686 14.996 38.413-1.989 12.053-16.088 18.891-18.994 29.038-12.345 24.949 16.349 56.386 21.683 85.697 22.542 32.246 0.946 65.531-1.75 95.915-13.269 31.155-11.812 59.176-33.927 84.431-55.193 5.574-4.694 11.946-9.307 16.841-14.714 2.205-2.436 3.489-5.992 7.067-6.847 6.835-1.633 18.571 5.36 25.178 6.81 7.445 1.633 8.38 2.96 6.728 9.537-1.685 6.713-0.452 8.261 10.162 12.773 11.95 5.077 12.099 5.34 13.981 24.866 2.517 26.093 3.422 28.449 9.846 25.662 8.07-3.496 33.151-2.008 46.407-7.499 7.754-3.212 9.958-3.036 14.607 1.172 7.202 6.516 18.348 6.324 20.81-0.358 7.514-20.391 25.825-34.22 30.811-23.275 1.968 4.314 9.358 14.562 16.429 22.769 14.734 17.112 14.552 17.042 22.215 8.574 9.7-10.721 14.99-12.16 26.697-7.269 15.724 6.572 33.47 2.778 51.505 7.788 15.609 4.333 21.633 2.004 17.036-6.585-1.897-3.541-3.823-15.515-4.281-26.609-1.972-47.419-14.949-39.755 1.646-56.87 9.664-9.974 9.084-19.474-1.19-19.474-1.776 0-9.728-5.48-17.67-12.178-18.672-15.746-24.699-17.752-42.655-14.203-16.143 3.194-19.468 2.021-16.468-5.796 1.679-4.378 4.943-4.839 22.598-3.197 19.003 1.764 21.457 1.3 31.051-5.905 20.092-15.087 29.864-9.802 19.987-28.734-6.532-12.513 1.78-9.266 2.566-42.324 0.258-10.854 1.536-22.127 2.842-25.048 2.049-4.59 0.647-5.313-10.286-5.313-18.873 0-42.643-8.559-42.643-15.351 0-7.104-5.611-10.614-9.98-6.245-6.206 6.206-11.273 3.676-11.273-5.626 0-4.952-2.356-13.948-5.237-19.99-5.046-10.581-5.025-11.106 0.589-14.246 78.818-44.112 116.98-190.94 72.579-279.24l-7.196-14.309 6.825-6.449c19.989-18.887 41.481-12.535 19.732-39.984zm-59.649-84.607c6.018-3.804 10.311-1.712 10.311 5.025 0 3.176-2.396 6.236-5.322 6.801-6.726 1.296-10.73-8.195-4.989-11.826zm-10.602 6.659c0.562 15.6 15.093 19.951 27.547 8.252l7.029-6.604c0 8.789 1.578 12.854-10.53 17.913-5.79 2.42-10.915 4.312-11.385 4.205-9.455-2.144-20.591-11.233-20.591-16.808-1e-3 -15.918 7.374-22.388 7.93-6.958zm-355.82 322.7c-6.345 2.435-6.042 2.514-10.377-2.711-4.73-5.698 0.798-13.663 9.479-13.663 7.186 0 7.936 13.672 0.898 16.374zm-112.94 329.75c18.566 0 21.038 15.8 3.613 23.081-10.39 4.342-41.118 5.866-44.762 2.219-6.883-6.88 23.078-25.3 41.149-25.3zm-228.38 32.284c0-1.9 1.415-1.722 3.592 0.456 7.003 7.002-3.592 8.319-3.592-0.456zm15.032-9.333c4.934-5.945 12.831-2.38 11.695 5.283-1.181 7.958-6.519 9.704-11.461 3.747-3.009-3.626-3.06-5.624-0.234-9.03zm16.945 24.264c-12.211 5.101-15.797 5.435-18.114 1.688-0.923-1.494 2.064-3.653 6.634-4.8 19.31-4.846 21.748-31.958 2.878-31.958-5.531 0-12.401-6.072 0.562-6.072 20.382 0 26.882 33.27 8.04 41.142zm100.18-112.66c35.371-15.642 50.531 5.162 23.907 32.806-17.109 17.761-19.826 17.846-31.436 0.971-13.636-19.819-12.501-24.92 7.529-33.777zm-66.304 16.107c-3.422-25.361 18.01-43.444 29.93-25.254 6.825 10.417 3.823 19.583-9.764 29.809-14.986 11.279-18.125 10.568-20.166-4.555zm22.771 13.265c13.177-12.885 17.546-11.893 28.935 6.564l9.779 15.846-12.815 11.294c-23.889 21.059-48.779-11.333-25.899-33.704zm33.58 104.55c-12.042 15.093-43.265 2.07-43.265-18.047 0-9.157 17.036-25.489 22.428-21.499 2.192 1.624 9.658 6.725 16.586 11.337 14.823 9.867 15.467 14.151 4.251 28.209zm1.251-32.041c-4.727-5.01-9.701-9.108-11.052-9.108-6.774 0-5.037-10.153 3.379-19.738 11.78-13.417 16.198-13.204 32.538 1.576l13.216 11.948-9.676 12.217c-11.563 14.6-16.995 15.195-28.405 3.105zm502.5-419.82c8.726 19.343 8.359 48.245-0.823 64.74-8.92 16.027-10.693 16.583-23.685 7.42-5.687-4.011-14.13-8.128-18.767-9.145-12.187-2.678-17.822-10.22-10.635-14.243 16.936-9.476 18.569-14.762 12.29-39.776-1.5-5.975-0.155-9.278 5.927-14.564 13.99-12.166 8.222-17.758-18.405-17.847-11.182-0.039-12.955-1.044-15.694-8.893-11.018-31.606 54.681-1.193 69.792 32.308zm-26.366 90.814c-13.511 9.88-40.933-2.784-40.933-18.903 0-11.282 7.193-9.403 39.236 10.25 7.059 4.329 7.129 4.682 1.697 8.653zm-120.98-110.32c1.151 1.154 0.534 5.517-1.369 9.701-3.692 8.1-8.003 9.715-11.374 4.259-2.407-3.892 9.628-17.075 12.743-13.96zm0.838 32.683c13.031 11.905 18.22 8.286 12.588-8.783-4.333-13.123-2.581-21.803 7.007-34.773 14.532-19.656-3.876-51.687 26.12-30.507 18.086 12.776 24.222 30.316 17.364 49.629-8.856 24.93-1.885 30.38 11.577 9.054 8.694-13.771 12.34-12.145 22.893-12.145-3.781 46.595-2.16 45.493-15.636 58.209-6.497 6.13-11.811 12.621-11.811 14.422 0 1.8-1.542 3.273-3.425 3.273-6.163 0 0.112-25.121 9.603-38.45 26.732-37.541-16.205-10.33-21.116 36.932-1.785 17.176-2.125 17.801-5.954 10.966-5.149-9.193-5.951-20.892-2.908-42.463 11.414-80.887-14.118-79.25-6.021-49.917 1.649 5.963 1.39 17.622-0.662 30.364-4.196 26.022-4.214 55.519-0.033 59.7 4.686 4.686 3.437 8.048 0.641 8.048-2.997 0-9.594-13.574-9.594-19.735 0-6.342-6.64-19.735-9.782-19.735-4.758 0 3.989 27.325-2.219 27.325-8.289 0-15.344-6.956-18.818-18.551-3.747-12.497-15.615-27.808-23.618-30.468-8.346-2.77 1.609-22.666 23.804-2.395zm-16.899 17.498c5.319 5.878 6.953 21.772 2.238 21.772-8.449 0-15.43 10.686-15.43-14.169 0-14.495 4.572-17.13 13.192-7.603zm-50.588 60.671c0.877 2.192 0.768 4.812-0.24 5.82-2.412 2.412-2.027-11.483 0.24-5.82zm-3.085-6.512c-1.114 1.111-2.025 0.201-2.025-2.025 0-5.425 4.733-0.69 2.025 2.025zm1.77 16.286c3.847-0.161 2.529 5.292-2.493 10.317-2.626 2.623-6.106 4.77-7.733 4.77-3.382 0 6.744-14.941 10.226-15.087zm-44.054-25.78c9.3-8.623 17.628-10.341 14.835-3.061-1.163 3.03 0.619 5.565 5.113 7.275 15.767 5.993 16.872 19.635 2.226 27.474-7.946 4.25-7.691 4.339-19.762-6.74-12.914-11.85-13.212-14.935-2.412-24.948zm11.416 46.939c-2.005 0-2.006-3.036 0-3.036 2.004 0 2.005 3.036 0 3.036zm-19.149-18.457c0.68-2.043 3.57-0.018 6.625 4.643 2.981 4.548 4.846 8.841 4.144 9.542-2.302 2.304-12.005-10.475-10.769-14.185zm-29.74 52.429c17.649-1.121 21.375 1.606 17.197 12.594-3.449 9.072-8.817 9.789-23.925 3.191-15.369-6.713-12.011-14.592 6.728-15.785zm-40.268 14.606c5.195 0 2.487 8.862-4.123 13.49-7.767 5.441-10.42 5.841-12.837 1.934-1.743-2.824 12.108-15.424 16.96-15.424zm-55.243 57.328c-8.146-15.97-6.267-21.068 6.98-18.918 7.505 1.217 13.921-0.458 24.632-6.44 15.372-8.58 28.352-8.543 35.526 0.104 7.205 8.677 21.102 4.918 2.875-15.839-10.356-11.795-11.064-15.682-4.363-24.003 3.974-4.938 5.034-5.153 6.534-1.339 3.358 8.543 21.624 23.433 31.063 25.318 5.189 1.039 10.165 4.296 11.085 7.259 4.988 16.089 14.621 17.612-10.375 14.786-24.371-2.753-27.65 2.776-3.242 5.326 82.187 8.591-96.984 10.195-75.63 19.41 6.103 2.635 14.261 2.711 31.879 0.292 33.88-4.648 70.912-3.683 76.596 1.998 4.044 4.044 2.778 4.551-11.349 4.551-22.437 0-64.302 19.268-57.231 26.342 0.908 0.904 5.735-1.263 10.73-4.822 17.637-12.558 55.027-20.871 55.027-12.232 0 1.767-1.327 2.395-2.948 1.394-4.74-2.93-19.701 6.333-28.178 17.442-6.734 8.833-10.514 10.699-27.061 13.377-10.578 1.712-21.356 4.047-23.946 5.188-11.966 5.272-14.989-19.651 8.228-26.712 7.709-2.347 10.626-8.218 6.995-14.093-2.122-3.435-4.433-3.522-12.837-0.483-22.617 8.178-40.97 1.732-50.99-17.906zm116.39 103.58c-39.163 14.652-72.479 3.771-93.847-30.653-13.793-22.218-18.882-58.157-6.476-45.751 1.949 1.949 5.659 3.558 8.249 3.589 9.533 0.094 12.06 4.238 9.503 15.572-4.776 21.177 7.967 38.781 18.438 25.47 5.529-7.032 8.182-7.909 21.891-7.229 16.999 0.844 27.28-3.236 32.438-12.873 3.798-7.095 12.002-2.991 12.002 6.005 0 2.748 3.416 10.022 7.59 16.167 11.881 17.486 10.335 22.174-9.788 29.703zm15.824-36.427c-1.266-4.175-4.166-10.287-6.446-13.581-8.298-11.987-1.809-26.988 9.033-20.895 34.644 19.481 9.583 74.685-2.587 34.476zm75.941 40.19c-10.878 28.057-12.099 28.303-36.941 7.427-22.122-18.59-21.784-17.467-9.725-32.472 21.056-26.202 14.294-66.2-15.903-94.084-17.259-15.935-11.564-23.417-21.198-32.126-20.169-18.256-1.627-29.098 25.88-15.135 61.029 30.975 84.374 98.076 57.887 166.39zm27.325 42.175c-17.294-6.188-18.29-9.938-8.972-33.786 29.083-74.438-9.503-158.11-87.335-189.39-21.15-8.498-11.531-21.802 17.343-23.985l22.452-1.697c74.266 74.932 74.414 79.015 75.676 155.87l10.912-0.667c11.68-0.717 14.819 3.573 4.918 6.716-16.771 5.323-23.145 29.077-12.223 45.567 3.319 5.01 6.051 11.607 6.051 14.661 0.027 6.874 17.865 4.418 22.792-3.136 9.649-14.789 13.201-17.628 17.173-13.72 13.753 13.534-37.122 26.125-45.129 41.398-4.825 9.207-4.163 9.146-23.658 2.172zm143.32 20.661c-3.802-8.978-3.82-11.054-0.128-14.977 5.064-5.383 10.047-0.115 10.047 10.626 0 13.019-5.274 15.332-9.919 4.351zm77.665-194.11c4.922 0 1.67 9.87-5.414 16.431-17.517 16.244-0.503 19.225 10.408 4.47 7.481-10.12 17.33-10.927 37.411-3.067 18.344 7.181 9.828 48.961-9.977 48.961-9.035 0-19.893 11.835-11.383 12.406 12.103 0.805 41.423-0.891 15.229 18.94-8.738 6.612-13.411 8.17-20.437 6.807-41.094-7.97-62.708-1.396-53.287 16.21 6.849 12.797 16.504 15.108 45.697 10.93 12.819-1.834 14.601-1.172 28.844 10.702 53.526 44.637-47.783 13.678-1.451 42.257 13.714 8.458 13.948 9.005 16.72 38.848 1.715 18.481 1.278 22.282-2.751 23.828-8.55 3.282-51.259-3.962-54.186-9.188-11.434-20.433-24.748-24.222-21.274-6.057 0.777 4.078-0.279 9.454-2.35 11.95-13.171 15.87-33.562-15.964-32.587-50.88 0.61-21.802-0.185-26.867-5.062-32.28-17.822-19.792-36.449 6.798-23.096 32.973 7.666 15.029 6.294 21.022-8.383 36.607-24.232 25.723-18.06-9.337-24.462-9.163-4.357 0.101-8.899 4.809-10.936 11.334-2.332 7.469-11.492 10.821-30.538 11.17l-12.114 0.222c-4.835-35.668-6.083-37.509 1.145-47.288 10.751-14.54 3.898-17.097-11.37-4.248-11.717 9.858-14.631 5.167-6.589-10.599 14.588-28.597 49.168-16.618 53.776-50.968 3.121-23.29-16.498-25.98-29.314-4.02-10.387 17.798-12.372 17.871-21.79 0.789l-8.012-14.528 16.632-20.479c17.801-21.917 20.691-35.013 5.538-25.084-11.404 7.472-13.817 6.03-13.438-8.021 0.644-23.554-10.132-58.434-21.927-70.988-9.203-9.794-1.825-11.692 11.862-3.051 17.164 10.833 38.878 17.728 62.432 19.82l20.789 1.846-6.267 7.942c-12.142 15.384 1.643 16.149 20.527 1.135 13.823-10.988 23.934-13.016 38.085-7.636 9.521 3.622 9.846 7.597 1.184 14.528-24.781 19.826-27.022 37.163-4.803 37.163 7.095 0 32.66-24.884 32.66-31.792 2e-3 -12.956 18.917-28.932 34.259-28.932zm-42.072 19.106c-10.605 19.954-16.319 26.326-21.787 24.301-6.16-2.283-4.354-8.684 3.658-12.973 14.977-8.016 20.427-30.435 7.396-30.435-3.325 0-9.758-1.922-14.297-4.269-28.023-14.489-37.749 26.578-40.581 1.992-0.744-6.476-2.323-8.097-7.032-7.232-28.622 5.268-52.701 1.751-77.728-11.349-30.522-15.979-82.893-60.115-79.65-67.129 1.172-2.538 2.696-11.84 3.382-20.673 1.591-20.497 13.386-31.33 21.238-19.507 5.028 7.572 11.38 9.157 8.696 2.168-6.048-15.764 15.688-24.259 28.094-10.982 4.861 5.204 10.912 9.464 13.447 9.464 2.532 0 7.569 4.794 11.188 10.654 17.16 27.763 63.622 36.44 96.416 18.004l15.624-8.783c42.016 43.727 47.777 39.5-13.38 57.941-38.674 11.662-89.008-3.108-123.72-36.312-17.798-17.021-20.931-17.558-13.007-2.231 23.366 45.181 106.31 69.792 168.74 50.072 28.206-8.911 26.326-9.558 33.616 11.546 12.331 35.699 0.4 6.775-20.307 45.733zm-39.965-417.79c-12.509-8.456-12.521-15.767-0.039-23.375 25.388-15.481 45.272-4.047 28.519 16.398-12.944 15.796-14.769 16.243-28.48 6.977zm34.56 66.552c-11.589 13.778-29.287 12.448-29.287-2.198 0-11.778-8.761-14.892-1.254-21.119 15.344-12.743 5.377-30.181 35.787-13.186 17.923 10.019 18.106 8.753-5.246 36.503zm18.785-37.827c-0.556-1.417-6.886-6.261-14.063-10.757l-13.055-8.18c22.826-28.812 20.837-29.835 37.827-19.877 22.097 12.949 22.926 15.539 9.4 29.387-11.365 11.64-18.02 14.758-20.109 9.427zm38.061 119.44c-15.648 15.648-20.275-14.133-7.438-47.895 4.357-11.464 8.498-10.283 12.658 3.604 4.201 14.024 1.417 37.654-5.22 44.291zm18.439-92.661c-14.625 14.841-15.266 14.813-29.417-1.284-14.015-15.928-14.015-16.085 0-29.77 12.485-12.19 12.221-12.248 29.408 6.13l11.962 12.788-11.962 12.135h9e-3zm-10.135-47.722c21.955-19.988 26.461-24.764 44.801-3.516 11.647 13.496 11.07 18.271-3.267 27.013-14.212 8.666-9.247 9.966-41.534-23.497z"/> <path d="m3484.9 4790.9c0 9.272-10.891 13.046-37.311 12.931-35.743-0.155-52.108-24.835-3.677-58.002-8.818-0.067-19.049-2.535-32.781 18.77-9.661 14.985-15.103 1.044-33.051 7.873-11.659 4.433-17.3-2.693-10.429-13.177 10.697-16.33 2.026-4.79-29.129-21.375-19.914-10.599-22.637-9.506-11.467 4.6 6.688 8.444 9.946 16.141 10.599 25.048 0.519 7.071 1.075 13.231 1.229 13.687 0.155 0.456 3.731-1.43 7.952-4.196 10.05-6.585 21.684 1.494 16.392 11.383-1.688 3.155-2.207 10.317-1.157 15.921 1.706 9.096 0.826 10.936-8.219 17.145-12.87 8.838-20.606 18.166-20.691 24.954-0.088 7.02 5.116 6.825 7.372-0.279 12.907-40.666 52.929-25.285 55.698 21.405l1.388 23.4-11.926 4.772c-18.287 7.317-29.208 32.841-18.594 43.455 11.458 11.458 38.794-4.298 35.884-31.099-1.811-16.836 9.893-27.236 2.238-57.298-2.408-9.461-3.683-17.898-2.833-18.749 3.155-3.154 12.925-1.415 14.455 2.572 0.868 2.268 15.894 16.905 33.385 32.532 30.216 26.989 31.773 28.965 31.148 39.558-1.005 17.033 6.992 27.019 21.639 27.019 29.672 0 28.318-39.246-1.415-41.052-10.621-0.644-18.943-7.596-72.03-60.186-18.335-18.162-21.484-17.175 66.637-20.922 35.584-1.515 52.374-38.565 17.537-38.699-12.141-0.044-28.843 10.383-28.843 18.009zm-94.421 132.98c-3.628 9.758-17.916 9.636-17.916-0.152 0-8.246 5.246-14.27 12.427-14.27 6.558 0 8.728 5.706 5.489 14.422zm-5.371-128.46c5.265-5.265 13.353-0.798 10.763 5.948-2.134 5.563-9.807 6.477-12.861 1.534-1.132-1.832-0.188-5.199 2.098-7.482zm21.32 16.228c-10.189 16.061-37.536 1.743-32.062-16.784l2.475-8.371 1.102 10.025c1.433 13.062 14.212 20.239 20.564 11.553 2.723-3.723 3.17-7.767 1.381-12.473-3.157-8.304-0.641-11.899 5.034-7.19 4.502 3.739 5.371 17.15 1.506 23.24zm96.218 91.737c8.504 0 14.558 8.374 10.611 14.677-4.032 6.434-14.264 8.061-18.405 2.927-4.554-5.641 0.744-17.604 7.794-17.604zm9.294-120.84c8.729 1.021 12.554 10.706 5.896 14.926-6.573 4.166-17.795 3.079-19.708-1.907-2.647-6.895 4.943-14.051 13.812-13.019z"/> <path d="m264.99 4568.4 2.229 8.571 2.82-7.394c7.296-19.137-9.605-18.697-5.049-1.177z"/> <path d="m46.195 4254.1c4.655 9.157 23.102 9.321 33.027 0.298 3.683-3.346 8.277-5.504 10.211-4.794 6.127 2.25 7.815-5.092 2.899-12.594-5.204-7.939-16.708-12.968-19.699-8.607-5.049 7.359-27.298 15.903-28.27 10.854-0.862-4.475-1.457-4.442-6.267 0.367-5.173 5.174-7.345 23.09-3.288 27.143 4.554 4.554 7.621 1.539 5.802-5.705-2.71-10.8 1.17-15.637 5.585-6.962zm26.861-2.305c-4.639 4.639-15.982 1.618-15.982-4.257-1e-3 -12.695 23.255-3.01 15.982 4.257z"/> <path d="m2854.6 93.569c7.05-3.212 8.859-2.547 18.608 6.831 15.876 15.272 16.902 18.387 11.379 34.588-6.965 20.446-4.072 36.467 8.942 49.48 16.177 16.173 35.523 8.313 35.523-14.437 0-9.776 5.31-9.819 25.461-0.203 34.831 16.623 59.551 8.462 59.551-19.659 0-6.704-18.029-25.498-30.629-31.925-16.902-8.623-17.176-11.388-2.399-24.365 15.873-13.942 15.002-13.805 29.584-4.597 43.466 27.438 101.41 14.079 74.076-17.078-2.505-2.854-10.882-7.253-18.618-9.779-14.097-4.606-16.793-4.466-61.339 3.142-26.317 4.497-34.318-24.189-9.042-32.423 82.714-26.946 162.52-7.147 229.38 56.904 24.987 23.937 25.021 24.025 11.422 30.963-15.028 7.667-24.406 23.243-30.173 30.525-0.552 0.704-4.096-1.621-7.87-5.167-45.776-43.004-138.85 3.13-138.85 68.826 0 4.721-4.184 14.319-9.357 21.457-8.346 11.522-17.968 38.501-17.968 50.385 0 6.312 7.238 5.432 13.663-1.667 11.155-12.327 77.422 31.874 77.422 51.642 0 5.763 34.499 34.598 19.747 6.066-5.532-10.693-4.424-11.34 16.687-9.761 15.305 1.148 17.3 2.177 23.907 12.327l7.211 11.076c-11.26 19.595-13.776 21.352-11.531 39.339 2.037 16.307-2.799 26.129-10.517 21.359-11.042-6.825-27.523 11.009-21.159 22.898 10.408 19.447 39.467 14.583 35.368-5.917-2.526-12.633 4.25-17.682 17.367-12.94 31.354 11.335 31.27-17.171 58.011-4.991 11.125 5.071 10.69 44.115-0.47 42.576-10.9-1.503-11.197 5.165-0.483 10.8 34.518 18.159 69.297 63.401 55.622 72.361-21.065 13.802 16.541 18.612 41.662 5.328 5.474-2.896 18.15-6.176 28.169-7.287 70.566-7.836 111.31-81.532 75.718-136.96l-7.144-11.125c42.149-27.604 20.971-60.683 62.933-17.983 67.794 68.978 88.397 157.42 54.469 233.78-7.645 17.206-10.135 17.628-23.387 3.956-10.074-10.393-10.116-10.563-6.236-24.417 8.392-29.976-1.36-70.59-18.238-75.946-25.227-8.006-30.792 27.213-10.587 67.017l11.552 22.765c-19.611 27.073-21.566 33.333-37.858 11.972-36.713-48.132-77.99-24.487-52.246 29.93 7.46 15.767 7.636 17.097 2.672 20.03-23.072 13.617-24.323 15.108-24.323 28.971 0 21.976 26.369 33.492 52.082 22.747 24.793-10.359 41.826 2.471 44.306 33.373 1.712 21.335 5.043 27.771 15.411 29.791 3.634 0.708 7.463 1.472 8.507 1.7 6.567 1.43 21.942-4.521 28.421-11 20.524-20.524-0.662-54.344-28.965-46.228-10.578 3.033-12.229 2.338-27.802-11.732l-8.228-7.438c30.404-27.509 24.926-29.563 58.439-2.887 29.669 23.615 60.371-31.992 31.646-57.325l-15.94-14.057c59.561-106.04 16.693-228.74-53.36-290.02-12.227-10.696-15.208-14.91-12.7-17.944 5.452-6.602 7.574-37.859 14.416-26.785 3.786 6.127 10.854 2.875 15.664-7.211 5.274-11.058 13.325-13.893 39.682-13.96l12.806-0.033c-0.937-12.822-2.612-48.26-8.277-58.13-4.275-7.445-4.132-8.647 1.928-16.35 10.653-13.547 8.907-13.571-40.026-43.423 8.044-3.427 18.823-7.281 32.411-18.217 6.406-5.155 14.264-10.204 17.458-11.218 8.462-2.684 7.202-7.338-5.508-20.351-18-18.438-4.853-4.703-0.374-49.395 4.644-46.439 10.177-45.829-2.329-42.688-13.809 3.474-57.904 5.425-67.196 10.399-16.167 8.654-24.982-30.932-42.196-3.549-17.359 27.622-32.277 26.663-25.953 61.439 2.332 12.84 2.062 16.177-1.43 17.519-8.122 3.115-9.072-1.503-7.086-34.53 0.802-13.338-0.27-17.136-7.12-25.279-4.436-5.271-8.064-12.053-8.064-15.068 0-7.454-9.928-9.506-20.197-4.181-6.254 3.246-10.047 3.552-14.619 1.193-8.565-4.428-36.73-1.921-51.715-3.665-17.143-1.993-1.4 10.032-11.935 30.416-7.809 15.093-1.458 20.553-12.354 24.693-24.098 9.157 18.814 12.739-15.94 21.262-24.845 6.094-25.294 5.929-46.101-16.708-63.07-68.614-203.63-93.878-268.71-48.293-9.81 6.871-13.062 5.21-24.347-12.43-14.352-22.437-20.388-22.313-44.267 0.908-20.506 19.941-21.481 23.727-9.682 37.697 17.904 21.195 17.51 18.991 6.522 36.5-5.514 8.79-10.478 16.577-11.033 17.312-5.377 7.099-24.754-27.006-23.187-40.818 2.869-25.327-16.155-38.817-38.471-27.28-31.25 16.158-12.137 67.098 19.733 52.576zm211.84-3.703c-6.485 4.922-7.375 4.906-27.486-0.507-84.729-22.803 64.883-27.884 27.486 0.507zm94.005 349.78c-6.091-6.09-4.375-12.096 3.152-11.027 4.372 0.622 6.831 3.066 6.831 6.792 0 7.101-4.994 9.223-9.983 4.235zm370.14 318.52c-4.515-4.515-4.326-10.314 0.389-12.047 6.148-2.259 11.385 0.844 11.385 6.746 0 6.731-7.132 9.943-11.774 5.301zm14.81 11.47c-4.126 4.97-12.145 6.188-12.145 1.843 0-2.796 7.187-6.397 12.764-6.397 1.913 0 1.67 1.797-0.619 4.554zm12.145-20.861c0 8.96-8.019 13.611-5 5.75 6.209-16.18-15.518-25.291-29.472-12.36-7.096 6.576-8.034 6.798-8.034 1.892 0-17.078 42.506-22.086 42.506 4.718zm-47.455-193.57c-6.947-23.4 0.422-35.563 14.592-24.089 5.86 4.745 7.083 9.127 8.085 28.956 1.992 39.43-10.305 36.792-22.677-4.867zm-75.491 60.628c6.774-17.649 24.274-16.25 41.99 3.358 14.667 16.234 14.1 19.738-4.815 29.685-8.769 4.612-16.981 8.853-18.253 9.424-3.495 1.576-20.862-37.405-18.922-42.467zm35.566 85.871c-4.017 3.719-26.39 5.477-33.331 2.617-13.368-5.51-16.939-27.292-4.472-27.292 3.057 0 7.205-1.646 9.215-3.656 2.848-2.848 6.643-0.352 17.215 11.325 7.456 8.241 12.575 15.892 11.373 17.006zm31.578-16.325c-16.359 12.315-16.486 12.309-30.112-1.646-17.115-17.526-14.645-15.77 21.915-39.5l10.748 13.113c13.341 16.283 13.362 16.056-2.551 28.033zm10.481-31.813c-11.458-13.902-11.747-11.586 3.637-29.144l12.84-14.656c16.419 14.732 10.338 9.277 26.776 24.022l-13.39 15.548c-15.988 18.567-17.83 18.828-29.863 4.23zm63.325-5.158c15.09 9.986 15.117 10.678 1.105 29.05-18.067 23.694-23.501 15.256-43.793-5.677l12.767-14.835c15.979-18.572 15.129-18.33 29.921-8.538zm-375.54-474.66c10.359-12.752 15.177 15.843 5.377 31.916-5.869 9.625-18.56 13.702-22.55 7.244-1.608-2.605 11.195-31.806 17.173-39.16zm-112.1-1.317c34.636-45.412 122.11-39.585 96.802 6.452-5.347 9.725-9.722 19.902-9.722 22.613 0 7.308-4.63 6-12.7-3.592-9.709-11.541-15.6-13.262-31.126-9.109-12.43 3.325-13.784 3.052-22.902-4.621-12.521-10.535-14.106-9.145-16.65 14.616-1.439 13.441-3.419 19.777-6.182 19.777-2.235 0-6.088 0.777-8.559 1.725-12.173 4.67-4.865-27.009 11.039-47.861zm25.646 131.76c-0.653 1.958-2.569 4.02-4.257 4.584-3.907 1.302-14.892-10.639-12.233-13.301 3.089-3.087 17.829 4.703 16.49 8.717zm58.13 18.706c-6.473 5.577-30.094 3.488-30.094-2.66 0-5.225 11.686-13.623 18.958-13.623 4.9 0 14.221 13.629 11.136 16.283zm-26.821-18.159c-14.151 14.286-15.141 22.191-20.731 16.602-6.34-6.343-4.284-16.158 5.313-25.352 14.164-13.572 7.912-25.619-7.912-15.251-22.156 14.516-31.781-11.684-62.359-11-16.933 0.383-16.635 0.877-8.762-14.552 11.304-22.158 40.794-31.837 62.174-20.403 6.907 3.692 9.922 3.978 13.216 1.245 4.527-3.759 4.175-4.166-15.949-18.363-10.384-7.326-11.07-21.954-0.902-19.228 23.473 6.282 26.996-6.212 48.882 13.96 20.618 19.008 34.594 17.834 13.699 18.12-11.31 0.155-17.121-1.898-29.53-10.432-55.782-38.375 2.896 38.357 58.446 15.093 13.191-5.519 0.643 21.376-51.426 14.121-83.9-11.691-86.723 13.192-54.972 6.418 29.581-6.306 40.017 9.813 90.805 0.355 15.846-2.951 8.322 4.575-7.952 7.955-35.799 7.435-31.563 21.25-3.537 9.233 19.859-8.508 17.962-3.079 14.312-3.079-1.925 0-5.462 4.694-7.861 10.435-7.653 18.309-21.122 10.172-34.954 24.123zm78.703 106.62c0-2.005 3.036-2.006 3.036 0s-3.036 2.005-3.036 0zm-12.145 0.513c0 6.716-8.389 4.551-16.577-4.278-15.078-16.261-3.684-9.492 4.096-24.32 6.646-12.658 27.662-6.622 27.662 7.943 0 14.207-15.181 12.833-15.181 20.655zm-6.16-44.501c-5.095 2.11-11.258 6.686-13.696 10.165-3.598 5.137-4.433 5.383-4.433 1.305 0-15.214 33.301-23.02 45.014-10.553 10.132 10.787 7.876 12.123-5.511 3.261-10.96-7.25-12.994-7.648-21.374-4.178zm31.752 37.697c-5.908 5.908-9.4 6.315-4.603 0.537 5.267-6.351 0.076-11.08 5.577-13.095 5.396-1.979 4.707 6.878-0.974 12.558zm38.735 34.722c0.868-12.096 1.606-13.177 8.477-12.403 13.56 1.524 15.855 17.843 4.154 29.545-9.683 9.682-14.125 3.655-12.631-17.142zm17.263 43.553c5.617-1.873 15.566 5.55 15.566 11.616 1e-3 17.519-19.608-10.267-15.566-11.616zm74.638 10.132c7.271 21.107-1.91 39.182-24.817 48.864-13.763 5.817-23.722 3.164-13.001-3.461 5.152-3.185 3.313-14.571-4.591-28.394-9.239-16.164-9.521-25.361-1.123-36.719 11.783-15.94-0.966-21.426-14.501-6.236-7.824 8.784-16.48 11.146-26.596 7.266-7.248-2.781-5.817-6.109 4.448-10.362 9.032-3.741 16.981-15.147 20.983-30.11 2.071-7.736 18.864-15.175 20.874-9.245 1.697 4.997 6.057 3.333 8.097-3.091 3.54-11.158 6.713-6.242 5.389 8.349-1.94 21.303 6.302 41.42 5.693 70.077-0.598 28.337 11.821 32.837 4.041-54.137-3.547-39.656 7.81-58.204 9.619-24.769 1.026 19.028 12.919 47.063 22.03 51.939 8.696 4.654 8.362-0.595-0.823-12.952-24.98-33.6-11.563-56.288-11.225-46.705 0.282 8.046 8.878 23.363 13.174 23.475 12.309 0.319 17.57 13.38 21.353 53.035 1.075 11.249-13.48 7.718-21.912-5.313-12.172-18.809-24.423-12.731-17.112 8.489zm65.411-98.708c0 3.358-2.052 5.966-4.694 5.966-10.896 0-40.377 24.812-45.913 10.39-3.328-8.668 8.969-20.916 22.064-21.979 6.516-0.528 13.077-2.174 14.586-3.652 4.159-4.081 13.957 2.431 13.957 9.275zm0-18.324c4.01 0 4.011 6.072 0 6.072-4.01 1e-3 -4.012-6.072 0-6.072zm-17.756 143.4c-22.847 12.312-41.38 14.753-38.353 5.055 6.564-21.056 6.461-20.958 20.339-19.21 21.657 2.729 40.979-12.175 25.142-19.392-6.953-3.167-7.59-5.104-7.59-23.002 0-17.78-0.823-20.318-9.108-28.139-19.163-18.089-3.241-8.407 19.768-24.016 12.958-8.796 14.319-8.932 20.515-2.058 27.411 30.41 11.426 88.057-30.713 110.76zm50.476-155.34c-17.999 20.448-20.206 21.144-31.47 9.88-7.833-7.833-8.283-7.921-12.315-2.408-4.047 5.532-4.351 5.489-9.145-1.357-11.197-15.988-51.921-4.5-74.987 21.156-7.432 8.267-16.143 15.032-19.352 15.032-3.212 0-9.048 3.416-12.97 7.591-7.12 7.578-8.966 8.113-18.976 5.498-7.493-1.958-6.652-8.732 3.847-30.923 30.021-63.458 101.31-86.521 170.92-55.288 24.311 10.905 23.983 8.631 4.448 30.819zm32.117-63.015c-6.789 21.417-6.285 21.204-28.479 11.975-68.274-28.403-159.6 5.237-187.32 68.996-4.008 9.215-8.374 18.806-9.704 21.311-6.853 12.891-22.641 3.756-20.151-11.659 1.163-7.196 0.176-14.167-2.796-19.774l-4.594-8.659c41.406-39.982 87.139-90.932 153.29-77.987 6.926 1.354 5.933-0.993 4.326-25.658l11.574 13.043c20.582 23.191 30.627 10.086 56.208 2.01 9.117-2.884 6.045-14.273-7.129-26.436-12.099-11.167-13.939-19.671-3.4-15.718 16.243 6.092 18.62 36.858 34.718 45.178 9.962 5.152 9.732 3.585 3.456 23.378zm-160.43-213.02c16.641 14.61 21.954 6.752 6.285-9.294l-11.589-11.868 4.047-16.21c7.153-28.661 51.305-31.19 51.305-2.942 0 9.075 4.855 15.573 11.635 15.573 3.309 0 3.962-2.866 2.732-12.026-2.977-22.172 12.958-19.957 12.958-11.037 0 2.147 2.845 6.479 6.324 9.628 14.173 12.82-7.555 39.086 4.041 61.509 14.99 28.986 37.454 0.768 30.562-38.386-3.735-21.188 5.272-15.732 21.068-41.161 7.387-11.898 15.427-4.524 15.427 14.152 0 15.396 6.169 17.176 13.526 3.901 12.17-21.952 25.347-20.342 65.414-21.496-1.86 40.67-0.773 53.954-19.953 63.871-11.783 6.094-11.076 15.484 1.075 14.197 22.55-2.389 25.576 9.637 5.975 23.74-13.635 9.813-15.669 10.344-37.323 9.801-25.422-0.641-40.065 5.234-43.235 17.343-3.993 15.272 22.103 24.168 40.329 13.748 11.58-6.619 17.327-5.514 32.821 6.318 38.626 29.495-23.185 12.871-3.057 30.207 22.358 19.264 22.225 19.046 21.256 34.093-1.253 19.557-1.49 12.077-27.368 17.303-9.096 1.837-12.831 1.044-19.386-4.111-4.466-3.513-9.303-6.388-10.748-6.388-5.21 0-2.487 12.005 3.446 15.181 6.023 3.221 8.525 12.145 3.406 12.145-14.996 0-28.531-13.702-35.11-35.541-5.52-18.32-32.238-28.036-44.2-16.073-10.065 10.065-3.534 24.289 11.155 24.289 3.367 0 8.383 2.499 11.146 5.553 18.46 20.397-26.147 26.406-48.108 6.476-17.743-16.101-30.796-17.913-22.911-3.185 12.31 23.007-13.689 0.118-68.887 30.875-22.874 12.752-22.297 13.684-8.732-14.094 12.051-24.678 17.51-47.67 14.999-63.155-2.019-12.436 2.21-14.583 11.738-5.96 11.006 9.961 13.669-0.243 3.695-14.155-15.299-21.335-17.519-27.316-14.564-39.233 3.798-15.329 11.194-15.496 21.138-0.47 6.154 9.3 10.156 12.336 16.261 12.336 28.904 0 14.61-34.184-19.786-47.321-18.349-7.003-16.338-12.305-27.951-35.414-2.999-5.969 9.447-1.235 19.144 7.281zm191.23 65.089c-24.948 11.454-24.412 12.039-27.489 7.062-3.513-5.687 3.446-9.303 15.703-8.161l11.786 1.099zm-248.66-26.071c-6.418-18.378-6.898-17.376 10.869-22.653 38.309-11.379 11.59 1.551 47.761 18.466 49.551 23.169 18.314 31.218 14.358 20.904-4.803-12.512-34.436-22.149-31.306-10.18 0.938 3.595-0.267 10.359-2.684 15.029-6.904 13.356-5.629 26.059 3.2 31.846 10.114 6.625 9.582 10.347-1.479 10.347h-9.072c3.331 39.387 10.996 74.232-49.708 141.06-35.226 38.785-24.475 14.557-50.922 18.754-9.169 1.457-11.805 0.58-15.94-5.325-7.56-10.793-6.318-12.627 15.008-22.155 68.889-30.777 98.573-114.04 69.915-196.1zm-29.593-6.534c52.279 80.636 13.861 168.82-51.63 198.81-13.817 6.327-13.839 6.324-17.652-0.795-4.958-9.266-3.728-15.566 4.269-21.854 11.513-9.059 4.949-12.922 26.156-32.972 23.703-22.419 27.866-58.585 10.423-90.632-9.804-18.01-10.365-16.177 11.197-36.394l17.237-16.16zm-274.06 5.334c22.662 13.28 26.275 23.73 12.193 35.289-9.23 7.575-47.379-4.46-47.379-14.95 0-21.541 16.681-31.184 35.186-20.339zm-2.547-38.456c-15.979 15.081-16.571 15.084-31.145 0.161l-11.883-12.169c14.554-10.197 16.296-12.46 31.382-28.604 28.398 27.998 29.241 24.007 11.646 40.612zm-49.271-65.35c12.895-9.834 16.723-8.586 26.542 8.647l6.51 11.425c-28.268 19.8-26.908 35.377-41.865 14.567-10.384-14.442-8.629-21.334 8.813-34.639zm-12.132 78.4c12.734-18.906 10.675-18.514 25.719-4.922 14.446 13.052 14.367 12.433 3.825 29.885-9.876 16.353-11.024 16.538-27.507 4.415-15.351-11.289-15.245-9.765-2.037-29.378zm-1.452 39.376c16.034 12.229 17.64 17.549 8.975 29.718-8.106 11.385-8.805 11.355-20.67-0.887-20.187-20.828-10.171-45.509 11.695-28.831zm-57.407-94.746c15.166 0 15.591 31.09 0.534 39.015-15.021 7.904-24.675-0.541-10.824-4.02 15.77-3.956 21.66-17.357 11.382-25.886-5.397-4.482-5.953-9.109-1.092-9.109zm-9.145 12.144c4.588 0 5.866 1.691 5.134 6.801-1.129 7.937-10.793 10.964-13.392 4.196-2.456-6.406 0.993-10.997 8.258-10.997z"/> <path d="m3329.9 438.45c0 11.974-5.697 16.948 1.193 16.948 3.667 0 4.879-3.015 4.879-12.145 0-16.964-6.072-13.642-6.072-4.803z"/> <path d="m3383 114.01c12.855 5.374 18.833 39.005 10.724 60.34-5.438 14.3-35.687 10.195-45.831-6.221-7.041-11.389-11.932-13.283-11.932-4.618 0 7.715 10.739 20.779 21.766 26.481 6.692 3.461 8.51 6.048 6.907 9.807-2.675 6.267-2.587 15.047 0.243 24.049 2.96 9.418-5.811 12.305-17.112 5.632l-8.769-5.18c0 8.941 1.329 17.684-9.014 37.618-9.874 19.031-8.043 21.429 7.378 9.67 23.34-17.809 44.15-1.452 33.37-17.898-7.839-11.962-1.603-20.351 12.278-16.52 22.608 6.247 12.683-11.63 34.928 12.063 8.516 9.069 16.577 14.88 20.649 14.88 8.711 0 8.607-4.891-0.155-7.265-20.857-5.651-18.875-36.702-18.976-45.843 10.749-3.599 62.274-23.741 70.02 2.411 7.241 24.45 50.169 30.449 49.811 6.962-0.325-21.478-63.276-36.212-110.39-25.844-12.527 2.757-6.51-6.525 27.426-42.3 30.173-31.813 36.449-37.059 42.509-35.538 17.722 4.448 34.266-10.963 30.003-27.954-6.434-25.634-44.097-17.734-44.097 9.251 0 8.671-3.276 13.483-21.226 31.199-11.674 11.519-20.895 23.023-20.494 25.558 1.149 7.244-9.586 2.019-19.149 15.445-11.625 16.328-18.144 12.114-16.043-10.372 3.292-35.209-11.881-43.883-5.037-56.682 5.893-11.009-7.739-34.582-20.719-35.827-26.55-2.547-25.788 35.532 0.936 46.696zm128.69 92.417c9.901 0 17.097 6.774 14.467 13.623-2.104 5.483-14.431 6.081-19.562 0.95-6.983-6.982-4.329-14.573 5.095-14.573zm-14.276-114.47c1.406-7.408 16.219-9.102 18.882-2.159 1.087 2.83 1.169 7.685 0.182 10.791-3.64 11.464-21.353 3.442-19.064-8.632zm-112.87 117.5c0-4.997 1.573-6.273 6.831-5.526 8.985 1.278 8.979 9.778 0 11.048-5.258 0.748-6.831-0.524-6.831-5.522zm22.599 8.432c-2.599 3.713-7.566 6.75-11.036 6.75-5.875 0-5.769-0.425 1.57-6.197 15.074-11.856 0.319-27.477-15.493-16.401-8.337 5.838-8.929 0.492-0.838-7.6 15.124-15.129 38.157 5.805 25.797 23.448zm-25.632-138.99c7.517 0 12.664 11.298 8.641 18.976-3.826 7.299-7.621 6.661-13.462-2.253-5.963-9.105-3.768-16.723 4.821-16.723z"/> <path d="m276.14 443.81c2.305-2.302 1.724-6.452-1.998-14.294-13.806-29.097-3.854 20.154 1.998 14.294z"/> <path d="m181.34 205.18c6.519 6.519-0.194 32.444-11.082 42.807-22.725 21.627 9.452 9.738 18.763-8.273 3.613-6.986 6.254-8.929 10.016-7.363 6.449 2.684 8.683 2.687 22.14 0.021 13.207-2.617 17.74 4.105 10.362 15.366-6.264 9.558-5.963 10.305 4.138 10.305 20.386 0 60.362 35.973 38.496 6.339-4.065-5.51-9.054-16.507-11.088-24.441-3.613-14.1-3.883-14.349-12.099-11.249-11.768 4.442-18.839-1.439-14.732-12.248 1.618-4.251 2.074-12.342 1.017-17.98-1.084-5.769-0.668-10.253 0.944-10.253 6.534 0 25.127-22.452 24.939-30.11-0.194-7.806-0.216-7.797-4.888 1.567-7.869 15.776-41.352 27.234-48.029 16.435-13.456-21.772-12.691-66.832 1.133-66.832 17.965 0 30.714-43.144 13.991-47.34-16.365-4.108-28.807 8.826-28.807 29.946 0 6.862-1.548 20.072-3.443 29.357-8.905 43.694 37.717 94.364-54.857 7.654-22.14-20.74-23.357-22.559-22.893-34.239 0.874-21.921-19.723-33.234-34.181-18.775-13.972 13.972-1.427 39.415 17.054 34.582 6.276-1.643 83.26 69.473 83.178 76.839-0.066 6.174-45.121 1.438-51.748 5.529-8.384 5.176-63.665-3.181-63.665 23.822 0 22.052 43.04 18.235 47.531-4.214 2.467-12.34 56.901-18.16 67.81-7.252zm35.757-134.8c8.68-1.299 11.771 9.649 5.447 19.301-6.379 9.734-13.222 9.464-15.751-0.619-2.442-9.726 1.796-17.41 10.304-18.682zm9.818 133.18c0 5.748-0.556 5.596-7.01-1.906-7.763-9.027-20.394-8.289-20.224 1.181 0.085 4.66 0.364 4.642 3.188-0.203 9.882-16.958 23.799 12.851 4.093 9.081-4.503-0.859-7.427 0.209-7.994 2.93-1.515 7.253-8.486-2.18-8.486-11.489-1e-3 -22.833 36.433-21.276 36.433 0.406zm-122.01-113.16c-1.275 11.061-15.454 13.462-20.776 3.516-4.918-9.187 2.444-16.599 13.687-13.778 6.579 1.651 7.866 3.516 7.089 10.262zm-7.238 129.47c-6.455 6.455-15.603 6.018-19.316-0.917-6.367-11.898 18.177-21.357 22.243-10.76 2.465 6.428 2.514 6.236-2.927 11.677z"/> <path d="m58.733 688.92 16.067-12.396c32.642 22.458 35.652 21.993 19.541 37.026-11.267 10.508-13.095 11.17-27.076 9.828-25.482-2.447-41.342 24.195-25.658 43.098 4.582 5.52 18.633 6.179 23.7 1.111 2.723-2.724 5.417-2.714 11.462 0.039 13.745 6.26 21.62-6.224 15.83-25.094-4.402-14.34 15.979-37.095 30.535-34.093 36.564 7.545 40.605 7.776 52.537 3 26.435-10.578 24.298-33.021-4.281-44.962-22.978-9.603-2.165-17.032-2.165-27.981 0-6.09-8.462-4.721-10.499 1.697-5.347 16.844-19.365 16.76-40.293-0.243-6.045-4.909 17.294-41.58 26.584-41.768 7.259-0.149 18.135 8.78 18.135 14.886 0 7.836 8.356 14.312 12.77 9.898 4.885-4.885 3.419-24.802-2.292-31.115-11.686-12.913-38.541-7.022-48.199 10.575-2.815 5.128-8.38 13.347-12.366 18.262l-7.247 8.938c-18.857-20.862-30.717-31.823-20.421-40.372 20.354-16.893 23.995-82.252 4.582-82.252-24.951 0-37.657 42.618-23.843 79.966l4.308 11.653c-24.731 23.073-30.956 31.853-37.979 4.424-1.767-6.901-5.216-17.761-7.666-24.134-22.786-59.25 6.324-148.73 68.586-210.81 19.793-19.738 18.305-19.85 39.652 3.036 16.374 17.552 21.623 26.566 15.472 26.566-4.864 0-15.545 26.305-17.527 43.159-5.098 43.38 28.956 84.441 77.713 93.701 13.058 2.48 22.844 6.437 28.928 11.698 19.216 16.62 65.462 24.25 50.512 8.337-10.371-11.04-11.722-24.708-3.106-31.403 3.938-3.061 16.723-15.184 28.412-26.937 11.69-11.753 26.402-25.164 32.696-29.8 13.022-9.594 12.39-14.425-1.749-13.335-17.652 1.36-15.67-29.147 2.596-39.925l10.812-6.379 11.747 6.758c10.781 6.206 12.913 6.449 25.99 2.951 17.716-4.739 22.656-1.497 22.656 14.871 0 20.537 23.636 27.049 33.212 9.151 7.809-14.592 0.203-26.481-18.032-28.19-8.668-0.814-10.451-2.116-9.676-7.068 3.176-20.272 1.439-33.98-5.486-43.35-27.692-37.455 53.043-38.423 40.8-18.618-1.378 2.229 8.319 8.16 16.119-8.192 15.311-32.11 58.23-62.326 70.229-49.447 13.963 14.986 16.086-13.271 3.188-42.455-3.23-7.311-5.872-18.53-5.872-24.936 0-69.479-86.49-114.57-143.52-74.826-9.837 6.853-8.348-8.652-34.312-23.867-21.66-12.691 25.133-62.8 77.643-83.139 5.845-2.265 11.993-5.14 13.663-6.388 43.034-32.159 189.54-10.469 158.45 23.46l-10.451 11.407-13.025-4.299c-41.018-13.538-96.119 11.273-71.693 32.28 14.097 12.126 33.136 9.446 69.516-9.789 15.818-8.365 17.148-8.076 34.099 7.39 12.221 11.149 11.434 15.193-4.205 21.672-11.291 4.676-27.58 27.499-27.58 38.638 0 23.831 20.397 30.68 48.915 16.428 23.491-11.738 22.188-11.865 30.547 3.003 23.414 41.662 60.984 4.931 43.031-42.072l-5.022-13.156c21.67-22.341 22.269-24.667 34.397-22.774 24.28 3.792 41.908-11.689 37.685-33.094-3.203-16.23-30.448-30.619-41.662-22.927-8.548 3.906-17.061 15.773-15.741 29.775 0.138 1.469 0.901 2.445 1.894 2.991-0.072 26.867-15.844 40.513-29.4 24.4-12.822-15.239-14.964-21.123-9.358-29.373 9.866-3.67 17.234-12.037 19.463-22.152 7e-3 -7e-3 0.014-0.013 0.021-0.02 10.122-10.123-20.479-41.456-40.815-41.793-5.698-0.093-8.784 3.058-8.215 5.957-4.686 3.757-18.747 16.627-18.801 20.4l-3.533 4.685-23.979-9.206c-95.981-36.843-197.9-14.901-262.32 56.482l-17.786 19.705-17.667-5.289c-29.098-8.705-27.459-7.848-21.465-11.212 8.659-4.861 6.118-10.809-6.831-15.988-14.722-5.895-14.294-11.879-11.747-49.784l-20.691 1.567c-39.788 3.003-39.662 13.101-51.654 5.243-19.492-12.774-20.059 5.236-37.017 25.179l-8.404 9.889c-5.704-8.086-14.739-20.743-24.508-35.62-21.497-32.724-18.62 13.779-45.278 0.884-10.883-5.263-54.477-5.776-69.4-6.291l0.717 7.59c1.507 15.805 2.526 48.48 6.71 52.665 5.423 5.422 3.561 17.096-4.39 27.522-9.355 12.263-9.485 15.764-0.759 20.336 23.112 12.125 27.425 35.027 62.338 26.745 18.354-4.354 26.224-1.011 18.767 7.973-3.431 4.135-7.879 4.615-27.104 2.912-37.344-3.308-18.769 3.783-43.11 13.857-8.383 3.473-9.011 4.727-7.375 14.701 0.984 5.996 1.652 12.952 1.485 15.457-0.805 12.073-1.49 40.814-4.335 53.788l-2.14 9.764c8.289-0.167 25.765-1.229 33.413 2.866 11.834 6.333 16.82-0.892 21.557 12.682 2.875 8.252 3.938 8.893 9.664 5.826 8.034-4.299 9.287-3.015 14.331 14.653 6.349 22.246 6.082 23.342-8.368 34.427-14.33 10.994-45.427 47.264-45.53 53.102-0.033 1.885-1.885 4.94-4.114 6.789-4.141 3.437-16.915 34.74-23.087 56.584-13.702 48.46-8.371 105.05 15.223 161.61 4.648 11.143 2.286 14.552-19.207 27.732-16.009 9.819-14.616 15.885 9.345 40.645 16.967 17.531 18.591 17.616 38.8 2.025zm-1.843 63.505c0-3.914 2.253-5.565 7.59-5.565 20.44-1e-3 -7.59 29.345-7.59 5.565zm7.983-14.674c-4.961 0-11.519 2.262-14.574 5.025-5.587 5.055-7.102 2.541-3.741-6.212 4.293-11.194 34.621-8.201 34.621 3.418 0 8.459-1.797-2.231-16.306-2.231zm376.6-311.01c1.989 2.723 2.884 6.871 1.985 9.212-2.253 5.875-12.894 5.362-15.235-0.735-2.975-7.751 8.438-15.056 13.25-8.477zm121.6-340.27c-19.607 5.823-27.766 5.787-32.687-0.146-7.806-9.403 8.289-20.117 32.475-21.624 36.078-2.24 36.206 11.08 0.212 21.77zm191.37-1.536c-5.526-0.039-5.96-0.61-2.277-2.99 5.887-3.804 9.108-3.804 9.108 0 0 1.669-3.076 3.014-6.831 2.99zm14.576-34.391c2.42 0.929 4.399 2.909 4.399 4.399 0 4.363-5.268 3.115-7.111-1.688-1.129-2.941-0.23-3.84 2.712-2.711zm-4.709 11.401c0 16.827-27.386 6.094-14.716-6.576 4.257-4.257 14.716 0.419 14.716 6.576zm-20.872-19.03c0.243-0.134 0.447-0.285 0.638-0.441h9.437l-7.096 4.97c-6.087 4.263-6.883 6.853-5.602 18.217 0.82 7.287 0.34 13.247-1.066 13.247-5.572 0-16.921-24.602 3.689-35.993zm-106.14 115.23c-18.985 8.328-23.649 7.433-30.671-5.896-5.544-10.517-1.77-18.87 14.27-31.597 18.405-14.604 18.651-14.558 30.817 5.784 11.731 19.613 11.376 20.397-14.416 31.709zm66.281-34.107 3.285 8.553c4.099 10.681 1.651 27.237-5.137 34.74-9.591 10.596-23.296 4.782-27.416-11.634-2.234-8.91-0.991-9.215 29.268-31.659zm-22.415 7.529c-13.441 10.25-11.862 10.842-22.832-8.592-11.045-19.571 2.034-46.617 19.334-39.98 19.526 7.493 21.493 34.843 3.498 48.572zm-37.522-101.18c0.556-0.231 1.09-0.607 1.559-1.2 5.485-6.945 11.703-13.079 18.695-18.425 8.131 2.989 31.813 19.104 33.776 31.292-1.205 3.867-3.429 7.395-6.394 10.132-1.23 0.385-3.098 1.589-5.522 3.717-3.412 1.576-7.927 1.407-7.449 6.278-4.245 2.482-7.145 0.401-15.635-6.808-5.41-4.594-12.788-10.748-16.398-13.684-5.72-4.644-6.252-5.578-2.632-11.302zm9.219 26.05c17.385 13.544 17.546 15.785 2.138 29.706-15.731 14.21-8.383 15.388-43.912-15.912 21.072-26.057 21.171-29.843 41.774-13.794zm-512.81 309.71c-20.196-20.197-20.218-21.763-0.428-30.365 131.39-57.095 199.97 74.958 179.13 80.95-11.169 3.213-13.178 7.711-19.975-3.795-8.831-14.946-9.286-0.319-33.419-25.58-23.94-25.057-63.043-29.697-91.604-10.872-13.052 8.601-15.523 7.845-33.707-10.338zm77.753 43.459c0 8.683-6.977 7.882-28.843-3.313-22.789-11.665-22.419-11.27-15.354-16.438 14.71-10.756 44.197 2.418 44.197 19.751zm-10.627 116.47c-58.245-14.054-85.41-77.443-51.681-120.6 4.475-5.723 5.173-5.568 27.343 6.072 25.361 13.317 26.918 16.325 13.559 26.202-9.385 6.941-10.22 14.346-4.086 36.255 0.765 2.732-2.068 9.078-6.294 14.1-10.092 11.996-10.523 11.389 11.291 15.946 20.227 4.223 23.411 6.576 23.485 17.361 0.045 6.785-1.964 7.471-13.617 4.66zm95.174-27.787c-7.417 6.431-8.644 6.834-8.644 2.83 0-7.265 6.388-18.414 10.55-18.414 6.762 0 5.657 9.023-1.906 15.584zm14.139-22.908c-5.79 1.454-10.114-0.325-18.323-7.533-16.513-14.5-24.705-9.819-15.15 8.662 5.423 10.484 4.184 18.068-5.11 31.263-3.243 4.603-6.67 15.873-7.618 25.048-1.898 18.372-3.82 19.486-18.36 10.62-19.968-12.175-27.808-38.869-17.321-58.98 6.361-12.199 0.164-18.967-7.229-7.897-12.467 18.672-34.555 27.462-28.774 11.452 1.357-3.759 2.113-13.93 1.679-22.607-0.74-14.804-0.133-16.298 9.892-24.289 5.875-4.682 12.153-12.968 13.951-18.408 4.745-14.355 9.552-8.975 7.026 7.867-1.901 12.685-11.173 30.747-17.148 33.401-1.251 0.559-2.277 3.844-2.277 7.302 0 6.1 0.185 6.124 6.078 0.792 9.688-8.768 25.066-43.945 23.138-52.932-4.864-22.704-5.383-27.523-2.966-27.523 10.575 0 15.897 39.178 10.253 75.457-2.991 19.234-3.012 27.635-0.109 39.743 11.167 46.54 6.523-26.497 10.445-59.563 2.083-17.558 1.621-24.195-2.389-34.218-6.045-15.102-6.054-15.348-0.662-15.348 2.371 0 5.222 4.154 6.34 9.227 1.634 7.436 3.182 8.862 7.979 7.338 8.777-2.784 20.433 6.297 26.721 20.822 5.835 13.474 19.019 29.408 24.332 29.408 6.542 3e-3 2.883 9.069-4.398 10.896zm10.008-35.586c-1.063 16.325-7.105 19.534-15.333 8.14-7.01-9.713-6.704-15.527 1.108-20.998 10.521-7.369 15.26-3.085 14.225 12.858zm135.1-119.92c-7.129 7.129-34.302 1.691-34.302-6.865 0-10.83 6.488-13.805 20.221-9.272 9.982 3.294 17.876 12.342 14.081 16.137zm34.336-23.64c-1.014 2.642-1.843 5.374-1.843 6.072s-2.781 1.269-6.179 1.269c-5.24 0-5.684-0.926-2.93-6.072 3.917-7.316 13.709-8.452 10.952-1.269zm40.484-30.191c-6.64-1.327-13.535 0.294-24.189 5.693-17.151 8.692-25.27 9.336-37.46 2.979-15.594-8.134-21.372 2.687-6.604 12.363 8.62 5.647 11.984 13.881 9.227 22.571-2.714 8.55-6.115 7.602-15.132-4.22-13.205-17.315-33.925-13.01-36.828-22.422-4.68-15.155-13.561-16.653 9.142-14.986 18.997 1.394 28.601-2.052 13.909-4.991-5.316-1.063-10.918-1.157-12.448-0.212-3.723 2.301-23.919-4.503-23.919-8.055 0-3.416 1.302-3.404 16.872 0.194 21.902 5.062 55.15-9.247 80.218-6.661 12.618 1.3 13.28 1.023 9.227-3.862-3.577-4.305-7.417-4.921-21.186-3.394-102.58 11.402-104.64-2.194-73.122-5.052 19.917-1.806 51.751-17.418 51.751-25.382 0-3.27-3.473-2.113-12.904 4.296-26.088 17.736-41.103 15.712-52.373 15.566 35.621-18.748 34.215-36.191 53.715-36.191 5.86 0 15.062-1.536 20.448-3.413 18.9-6.592 20.858 11.756 2.478 23.211-12.254 7.636-13.699 18.642-2.256 17.191 35.338-4.481 36.71-4.39 44.546 2.93 17.509 16.35 21.489 34.768 6.888 31.847zm-113.06-122.16c48.25-19.149 106.99 18.047 107.14 67.846 0.04 12.979-1.21 10.558-20.424 3.449-5.969-2.207-6.406-3.513-3.625-10.83 7.505-19.744-7.114-39.333-19.847-26.597-17.146 17.139-32.206-9.404-56.636 20.767-9.59 11.843-2.625-5.354-19.313-27.219-10.083-13.219-7.156-19.534 12.709-27.416zm-26.171 23.062c3.689 0 21.001 34.825 21.001 42.239 0 11.261-14.801 10.122-24.228-1.864-8.253-10.487-5.861-40.375 3.227-40.375zm-65.542-26.071c12.108-27.38 12.12-27.386 29.973-12.624 29.997 24.808 28.279 21.705 19.261 34.809-14.06 20.436-19.216 43.356-9.752 43.356 2.505 0 4.554 1.324 4.554 2.939 0 1.618-2.05 2.156-4.554 1.196-13.566-5.207 5.371 36.895 22.947 51.022 17.819 14.316 10.696 22.572 22.768 33.777 6.33 5.875 6.768 7.612 3.525 14.054-5.116 10.168-7.269 10.214-27.987 0.598-63.509-29.47-89.942-103.08-60.735-169.13zm-24.277-40.957c17.087 6.57 16.896 5.368 5.805 36.667-24.996 70.53 5.96 147 72.294 178.59 31.294 14.905 33.634 30.595 4.496 30.155-31.792-0.483-12.059 22.982-53.661-20.618-38.993-40.861-50.057-62.933-50.658-101.06-0.537-34.078-0.604-34.227-12.97-29.915-11.231 3.914-15.123-0.276-4.672-5.037 16.771-7.642 23.797-29.921 13.559-43.01-3.267-4.175-5.969-10.584-6.006-14.243-0.1-9.794-5.368-11.419-16.905-5.207-15.815 8.521-21.305 0.228 3.285-10.648 7.973-3.528 14.974-9.169 17.06-13.751 4.239-9.299 8.444-9.588 28.373-1.927zm-153.1-31.789c2.341-1.445 8.826 16.987 8.862 25.191 0.024 5.052-7.475 4.846-11.765-0.325-3.576-4.308-1.493-22.146 2.903-24.866zm-66.775 190.67c8.948-10.192 9.391-11.504 4.202-12.503-7.349-1.417-16.625 11.852-22.571 18.976-37.684-9.46-39.567-7.689-39.567-31.533 0-19.929 3.328-24.304 20.622-27.116 18.451-3 17.276-12.564-1.424-11.595-19.246 0.996-19.941-6.637-1.794-19.784 12.117-8.777 13.502-9.093 24.289-5.553 29.435 9.661 60.046-4.163 45.296-20.458-7.204-7.964-24.016-10.821-36.689-6.239-13.107 4.739-22.185 1.072-42.71-17.251-17.285-15.43-14.476-23.834 7.348-21.985 13.526 1.147 15.439-4.913 3.5-11.085-31.157-16.113-29.49-68.411 2.135-66.883 26.943 1.299 33.701 4.05 41.908 17.051 8.853 14.024 14.938 15.539 12.448 3.097-1.834-9.172 4.53-21.702 11.015-21.681 11.644 0.036 30.425 34.372 27.259 49.832-3.407 16.638-1.014 29.651 7.104 38.623 16.186 17.886 31.057-6.61 19.465-32.062-7.208-15.818-5.817-21.344 9.974-39.631 11.182-12.946 18.736-12.154 20.855 2.183 1.551 10.514 8.295 9.673 13.016-1.624 6.448-15.43 11.394-14.297 42.703-14.297l3.662 18.976c3.361 17.421 3.167 19.65-2.341 27.201-11.122 15.248-3.814 20.785 9.178 6.956 7.077-7.533 15.181-10.116 15.181-4.843 0 13.32-22.018 36.722-34.548 36.722-18.736 0-35.243 40.475-19.865 48.706 9.233 4.94 14.403 1.637 20.8-13.286 4.651-10.854 10.833-17.203 16.75-17.203 10.511 0 11.185 39.163 0.847 49.249-26.238 25.602-17.721 36.539-6.188 25 8.067-8.064 11.519-3.167 13.25 18.794 3.096 39.286 39.857 84.756 12.958 65.963-13.72-9.585-50.661-20.363-68.523-19.993-22.585 0.468-20.157 0.471-4.706-19.085l-6.81-1.026c-3.747-0.565-10.375 1.831-14.725 5.329-19.24 15.451-21.107 16.192-35.41 14.048-16.796-2.52-20.709-9.218-10.204-17.47 16.392-12.873 17.965-14.774 17.965-21.733 0-27.307-32.805-12.579-45.041 20.224-5.122 13.735-7.387 16.088-21.469 22.303-20.148 8.889-23.876 3.464-9.145-13.314zm155.92-115.83c-2.745 4.439-10.429 3.088-10.429-1.837 0-5.107 0.559-5.316 7.323-2.717 2.632 1.008 4.032 3.057 3.106 4.554zm-144.11 141.53c4.717-4.355 24.38-21.438 24.38-26.824 0-6.737 14.889-26.979 19.844-26.979 7.247 0 5.095 9.087-4.837 20.394-11 12.53-11.313 24.171-0.607 22.683 3.747-0.519 9.856 1.187 13.578 3.795 29.721 20.814 35.526-35.143 40.335 5.96 63.213 0.293 61.433-1.116 83.685 10.505 38.896 20.315 83.937 60.556 78.712 70.323-5.781 10.796-3.2 12.791 7.997 6.188 8.009-4.727 10.529-5.28 9.284-2.034-8.164 21.274-0.805 38.283 16.562 38.283 8.265 0 6.901-3.829-3.464-9.728-10.247-5.829-11.204-10.195-4.363-19.96 6.537-9.333 18.715-8.89 23.151 0.844 1.901 4.175 5.289 7.59 7.524 7.59 6.956 0 4.468 11.392-3.93 17.995-12.749 10.029-40.581 7.068-40.581-4.314 0-5.188-11.083-16.833-14.987-21.271l-0.097 10.897c-0.088 9.761-7.739 17.947-16.784 17.947-0.671 0-5.331-8.616-10.359-19.149-30.963-64.879-106.73-95.192-183.84-73.554-35.271 9.899-31.27 9.217-41.201-29.591zm53.795 387.58c19.122-4.909 33.164 19.771 16.128 28.345-10.742 5.407-36.173 5.089-38.31-0.48-2.204-5.744 13.663-25.676 22.182-27.865zm-44.601-28.461c2.287 1.607 31.666 22.288 32.605 22.802 0.398 0.216-3.376 5.96-8.383 12.77-12.391 16.848-15.181 17.251-33.015 4.767-18.621-13.034-18.609-12.937-3.349-28.197l12.142-12.142zm-40.071-87.999c0-20.236 4.33-30.416 12.934-30.416 12.915 0 13.341 27.401 0.813 52.374-8.166 16.279-13.747 7.368-13.747-21.958zm3.659 50.312c30.755 30.181 31.182 26.683 18.961 43.963-10.739 15.181-15.445 14.929-30.735-1.661-17.196-18.655-16.434-14.757 11.774-42.302zm-18.014 46.428c18.241 18.532 18.271 19.097 1.518 28.916-16.714 9.794-13.572 10.566-30.465-7.493-25.011-26.739 3.176-47.603 28.947-21.423z"/> <path d="m2803.3 76.637c11.016-2.241 7.699-18.877-3.32-16.67-11.041 2.246-7.682 18.864 3.32 16.67z"/> <path d="m1958.2 76.797c11.252 0 11.227-17 0-17-11.219 0-11.269 17 0 17z"/> <path d="m1783.6 59.797c-11.24 0-11.234 17 0 17 11.241 0 11.231-17 0-17z"/> <path d="m1841.8 76.797c11.244 0 11.229-17 0-17-11.219 0-11.269 17 0 17z"/> <path d="m1900 76.797c11.244 0 11.229-17 0-17-11.219 0-11.269 17 0 17z"/> <path d="m2452.6 76.797c11.237 0 11.215-17 0-17-11.257 0-11.247 17 0 17z"/> <path d="m2598 59.797c-11.219 0-11.26 17 0 17 11.252 0 11.227-17 0-17z"/> <path d="m2714.4 59.797c-11.244 0-11.232 17 0 17 11.253 0 11.226-17 0-17z"/> <path d="m1754.6 59.797c-11.24 0-11.234 17 0 17 11.255 0 11.226-17 0-17z"/> <path d="m2278.1 59.797c-11.244 0-11.232 17 0 17 11.265 0 11.217-17 0-17z"/> <path d="m2219.9 59.797c-11.219 0-11.269 17 0 17 11.264 0 11.216-17 0-17z"/> <path d="m2190.8 59.797c-11.219 0-11.269 17 0 17 11.265 0 11.217-17 0-17z"/> <path d="m1463.7 59.797c-11.219 0-11.269 17 0 17 11.241 0 11.231-17 0-17z"/> <path d="m1143.8 59.797c-11.219 0-11.269 17 0 17 11.241 0 11.231-17 0-17z"/> <path d="m1085.6 59.797c-11.219 0-11.269 17 0 17 11.241 0 11.232-17 0-17z"/> <path d="m1027.4 59.797c-11.219 0-11.269 17 0 17 11.24 0 11.231-17 0-17z"/> <path d="m1231 59.797c-11.216 0-11.271 17 0 17 11.24 0 11.231-17 0-17z"/> <path d="m1201.9 59.797c-11.24 0-11.234 17 0 17 11.241 0 11.231-17 0-17z"/> <path d="m1172.8 59.797c-11.24 0-11.234 17 0 17 11.255 0 11.226-17 0-17z"/> <path d="m852.9 59.797c-11.234 0-11.22 17 0 17 11.254 0 11.225-17 0-17z"/> <path d="m969.25 76.797c11.24 0 11.231-17 0-17-11.216 0-11.271 17 0 17z"/> <path d="m823.82 59.797c-11.219 0-11.269 17 0 17 11.241 0 11.232-17 0-17z"/> <path d="m881.99 59.797c-11.24 0-11.234 17 0 17 11.241 0 11.231-17 0-17z"/> <path d="m911.08 76.797c11.24 0 11.231-17 0-17-11.216 0-11.271 17 0 17z"/> <path d="m1405.5 59.797c-11.219 0-11.269 17 0 17 11.241 0 11.232-17 0-17z"/> <path d="m2772.5 59.797c-11.244 0-11.232 17 0 17 11.253 0 11.226-17 0-17z"/> <path d="m1260.1 59.797c-11.24 0-11.234 17 0 17 11.24 0 11.231-17 0-17z"/> <path d="m1492.8 59.797c-11.24 0-11.234 17 0 17 11.255 0 11.226-17 0-17z"/> <path d="m1609.1 59.797c-11.219 0-11.269 17 0 17 11.24 0 11.231-17 0-17z"/> <path d="m1696.4 59.797c-11.244 0-11.232 17 0 17 11.254 0 11.225-17 0-17z"/> <path d="m1580 76.797c11.252 0 11.227-17 0-17-11.216 0-11.271 17 0 17z"/> <path d="m1347.4 59.797c-11.219 0-11.269 17 0 17 11.24 0 11.231-17 0-17z"/> <path d="m1434.6 59.797c-11.244 0-11.232 17 0 17 11.254 0 11.225-17 0-17z"/> <path d="m1289.2 76.797c11.244 0 11.229-17 0-17-11.216 0-11.271 17 0 17z"/> <path d="m1725.5 59.797c-11.219 0-11.269 17 0 17 11.241 0 11.231-17 0-17z"/> <path d="m1667.3 59.797c-11.219 0-11.269 17 0 17 11.241 0 11.232-17 0-17z"/> <path d="m1987.2 76.797c11.244 0 11.229-17 0-17-11.253 0-11.23 17 0 17z"/> <path d="m1929.1 76.797c11.244 0 11.229-17 0-17-11.253 0-11.23 17 0 17z"/> <path d="m2016.3 76.797c11.252 0 11.227-17 0-17-11.219 0-11.261 17 0 17z"/> <path d="m2539.9 76.797c11.244 0 11.229-17 0-17-11.219 0-11.26 17 0 17z"/> <path d="m2045.4 76.797c11.244 0 11.229-17 0-17-11.253 0-11.23 17 0 17z"/> <path d="m2656.2 76.797c11.252 0 11.227-17 0-17-11.219 0-11.261 17 0 17z"/> <path d="m2569 76.797c11.244 0 11.229-17 0-17-11.253 0-11.23 17 0 17z"/> <path d="m1812.7 76.797c11.252 0 11.227-17 0-17-11.244 0-11.232 17 0 17z"/> <path d="m2510.8 76.797c11.244 0 11.229-17 0-17-11.253 0-11.23 17 0 17z"/> <path d="m1870.9 76.797c11.252 0 11.227-17 0-17-11.244 0-11.232 17 0 17z"/> <path d="m2627.1 76.797c11.265 0 11.216-17 0-17-11.219 0-11.27 17 0 17z"/> <path d="m1638.2 76.797c11.252 0 11.227-17 0-17-11.24 0-11.234 17 0 17z"/> <path d="m2307.2 76.797c11.244 0 11.229-17 0-17-11.218 0-11.269 17 0 17z"/> <path d="m2336.3 76.797c11.252 0 11.227-17 0-17-11.244 0-11.232 17 0 17z"/> <path d="m2249 76.797c11.265 0 11.216-17 0-17-11.218 0-11.269 17 0 17z"/> <path d="m2161.8 76.797c11.265 0 11.216-17 0-17-11.219 0-11.27 17 0 17z"/> <path d="m2365.4 76.797c11.244 0 11.229-17 0-17-11.219 0-11.269 17 0 17z"/> <path d="m2132.7 76.797c11.232 0 11.215-17 0-17-11.241 0-11.266 17 0 17z"/> <path d="m2423.5 76.797c11.244 0 11.229-17 0-17-11.219 0-11.269 17 0 17z"/> <path d="m2074.5 76.797c11.252 0 11.227-17 0-17-11.219 0-11.261 17 0 17z"/> <path d="m2103.6 76.797c11.265 0 11.216-17 0-17-11.219 0-11.27 17 0 17z"/> <path d="m2394.4 76.797c11.252 0 11.227-17 0-17-11.244 0-11.232 17 0 17z"/> <path d="m2481.7 76.797c11.244 0 11.229-17 0-17-11.219 0-11.269 17 0 17z"/> <path d="m1376.4 76.797c11.252 0 11.227-17 0-17-11.24 0-11.234 17 0 17z"/> <path d="m1318.3 76.797c11.24 0 11.231-17 0-17-11.24 0-11.234 17 0 17z"/> <path d="m2743.5 76.797c11.265 0 11.216-17 0-17-11.219 0-11.27 17 0 17z"/> <path d="m998.33 76.797c11.253 0 11.227-17 0-17-11.24 0-11.234 17 0 17z"/> <path d="m1521.9 76.797c11.24 0 11.231-17 0-17-11.218 0-11.269 17 0 17z"/> <path d="m1114.7 76.797c11.252 0 11.227-17 0-17-11.24 0-11.234 17 0 17z"/> <path d="m940.16 76.797c11.24 0 11.231-17 0-17-11.24 0-11.234 17 0 17z"/> <path d="m2685.3 76.797c11.265 0 11.216-17 0-17-11.219 0-11.27 17 0 17z"/> <path d="m1551 76.797c11.252 0 11.227-17 0-17-11.235 0-11.218 17 0 17z"/> <path d="m1056.5 76.797c11.252 0 11.227-17 0-17-11.24 0-11.234 17 0 17z"/> <path d="m799.45 61.226c-4.627-3.016-10.583-1.009-12.57 3.82-3.515 8.533 7.31 15.809 13.86 9.26 3.752-3.746 3.199-10.054-1.29-13.08z"/> <path d="m2806.4 4929.2c-4.619-3.011-10.577-1.02-12.57 3.82-3.522 8.551 7.344 15.816 13.86 9.26 3.846-3.846 3.076-10.194-1.29-13.08z"/> <path d="m1463.7 4927.8c-11.219 0-11.269 17 0 17 11.241 0 11.231-17 0-17z"/> <path d="m1609.1 4927.8c-11.219 0-11.269 17 0 17 11.24 0 11.231-17 0-17z"/> <path d="m911.07 4927.8c-11.235 0-11.219 17 0 17 11.259 0 11.243-17 0-17z"/> <path d="m940.16 4927.8c-11.24 0-11.235 17 0 17 11.255 0 11.226-17 0-17z"/> <path d="m1580 4927.8c-11.212 0-11.273 17 0 17 11.255 0 11.226-17 0-17z"/> <path d="m1492.8 4927.8c-11.24 0-11.235 17 0 17 11.252 0 11.228-17 0-17z"/> <path d="m881.99 4927.8c-11.219 0-11.269 17 0 17 11.241 0 11.231-17 0-17z"/> <path d="m1551 4927.8c-11.235 0-11.219 17 0 17 11.255 0 11.226-17 0-17z"/> <path d="m1521.9 4927.8c-11.219 0-11.269 17 0 17 11.255 0 11.226-17 0-17z"/> <path d="m1027.4 4927.8c-11.219 0-11.269 17 0 17 11.24 0 11.231-17 0-17z"/> <path d="m1114.7 4927.8c-11.24 0-11.235 17 0 17 11.255 0 11.226-17 0-17z"/> <path d="m1260.1 4927.8c-11.24 0-11.235 17 0 17 11.24 0 11.231-17 0-17z"/> <path d="m1085.6 4927.8c-11.219 0-11.269 17 0 17 11.241 0 11.232-17 0-17z"/> <path d="m1056.5 4927.8c-11.24 0-11.235 17 0 17 11.255 0 11.226-17 0-17z"/> <path d="m1289.2 4927.8c-11.212 0-11.273 17 0 17 11.244 0 11.229-17 0-17z"/> <path d="m1231 4927.8c-11.239 0-11.264 17 0 17 11.24 0 11.231-17 0-17z"/> <path d="m1201.9 4927.8c-11.24 0-11.235 17 0 17 11.241 0 11.231-17 0-17z"/> <path d="m1143.8 4927.8c-11.219 0-11.269 17 0 17 11.241 0 11.231-17 0-17z"/> <path d="m1434.6 4927.8c-11.244 0-11.233 17 0 17 11.251 0 11.227-17 0-17z"/> <path d="m1405.5 4927.8c-11.219 0-11.269 17 0 17 11.241 0 11.232-17 0-17z"/> <path d="m998.33 4927.8c-11.24 0-11.235 17 0 17 11.255 0 11.226-17 0-17z"/> <path d="m969.24 4927.8c-11.235 0-11.219 17 0 17 11.259 0 11.243-17 0-17z"/> <path d="m1347.4 4927.8c-11.219 0-11.269 17 0 17 11.24 0 11.231-17 0-17z"/> <path d="m1318.3 4927.8c-11.24 0-11.235 17 0 17 11.255 0 11.226-17 0-17z"/> <path d="m1172.8 4927.8c-11.24 0-11.235 17 0 17 11.252 0 11.228-17 0-17z"/> <path d="m1376.4 4927.8c-11.24 0-11.235 17 0 17 11.255 0 11.226-17 0-17z"/> <path d="m2743.5 4927.8c-11.219 0-11.269 17 0 17 11.264 0 11.216-17 0-17z"/> <path d="m2394.4 4927.8c-11.244 0-11.233 17 0 17 11.255 0 11.226-17 0-17z"/> <path d="m2452.6 4927.8c-11.244 0-11.233 17 0 17 11.255 0 11.226-17 0-17z"/> <path d="m2423.5 4927.8c-11.219 0-11.269 17 0 17 11.245 0 11.229-17 0-17z"/> <path d="m2539.9 4927.8c-11.219 0-11.261 17 0 17 11.244 0 11.229-17 0-17z"/> <path d="m2481.7 4927.8c-11.219 0-11.269 17 0 17 11.244 0 11.229-17 0-17z"/> <path d="m2510.8 4927.8c-11.253 0-11.23 17 0 17 11.244 0 11.229-17 0-17z"/> <path d="m2365.4 4927.8c-11.219 0-11.269 17 0 17 11.245 0 11.229-17 0-17z"/> <path d="m2278.1 4927.8c-11.244 0-11.233 17 0 17 11.255 0 11.226-17 0-17z"/> <path d="m2307.2 4927.8c-11.219 0-11.269 17 0 17 11.245 0 11.229-17 0-17z"/> <path d="m2336.3 4927.8c-11.244 0-11.233 17 0 17 11.255 0 11.226-17 0-17z"/> <path d="m823.82 4927.8c-11.219 0-11.269 17 0 17 11.241 0 11.232-17 0-17z"/> <path d="m2772.6 4927.8c-11.219 0-11.269 17 0 17 11.232 0 11.218-17 0-17z"/> <path d="m852.9 4927.8c-11.244 0-11.233 17 0 17 11.251 0 11.227-17 0-17z"/> <path d="m2569 4927.8c-11.253 0-11.23 17 0 17 11.244 0 11.229-17 0-17z"/> <path d="m2249 4927.8c-11.219 0-11.269 17 0 17 11.265 0 11.217-17 0-17z"/> <path d="m2714.4 4927.8c-11.244 0-11.233 17 0 17 11.252 0 11.227-17 0-17z"/> <path d="m2685.3 4927.8c-11.219 0-11.269 17 0 17 11.265 0 11.216-17 0-17z"/> <path d="m2598 4927.8c-11.219 0-11.261 17 0 17 11.244 0 11.229-17 0-17z"/> <path d="m1638.2 4927.8c-11.24 0-11.235 17 0 17 11.255 0 11.226-17 0-17z"/> <path d="m2656.2 4927.8c-11.219 0-11.261 17 0 17 11.255 0 11.226-17 0-17z"/> <path d="m2627.1 4927.8c-11.219 0-11.269 17 0 17 11.265 0 11.216-17 0-17z"/> <path d="m1812.7 4927.8c-11.244 0-11.233 17 0 17 11.255 0 11.226-17 0-17z"/> <path d="m1841.8 4927.8c-11.219 0-11.261 17 0 17 11.244 0 11.229-17 0-17z"/> <path d="m1870.9 4927.8c-11.244 0-11.233 17 0 17 11.258 0 11.243-17 0-17z"/> <path d="m1783.6 4927.8c-11.219 0-11.269 17 0 17 11.241 0 11.231-17 0-17z"/> <path d="m1900 4927.8c-11.219 0-11.261 17 0 17 11.244 0 11.229-17 0-17z"/> <path d="m1667.3 4927.8c-11.219 0-11.269 17 0 17 11.241 0 11.232-17 0-17z"/> <path d="m1754.6 4927.8c-11.24 0-11.235 17 0 17 11.252 0 11.228-17 0-17z"/> <path d="m1696.4 4927.8c-11.244 0-11.233 17 0 17 11.251 0 11.227-17 0-17z"/> <path d="m1929.1 4927.8c-11.258 0-11.246 17 0 17 11.244 0 11.229-17 0-17z"/> <path d="m2219.9 4927.8c-11.244 0-11.233 17 0 17 11.254 0 11.225-17 0-17z"/> <path d="m1725.5 4927.8c-11.219 0-11.269 17 0 17 11.241 0 11.231-17 0-17z"/> <path d="m2161.8 4927.8c-11.219 0-11.269 17 0 17 11.265 0 11.216-17 0-17z"/> <path d="m2103.6 4927.8c-11.219 0-11.269 17 0 17 11.265 0 11.216-17 0-17z"/> <path d="m2132.7 4927.8c-11.219 0-11.261 17 0 17 11.255 0 11.226-17 0-17z"/> <path d="m2190.8 4927.8c-11.234 0-11.22 17 0 17 11.252 0 11.227-17 0-17z"/> <path d="m1958.2 4927.8c-11.219 0-11.261 17 0 17 11.255 0 11.226-17 0-17z"/> <path d="m2074.5 4927.8c-11.219 0-11.261 17 0 17 11.255 0 11.226-17 0-17z"/> <path d="m2016.3 4927.8c-11.219 0-11.261 17 0 17 11.255 0 11.226-17 0-17z"/> <path d="m1987.2 4927.8c-11.253 0-11.23 17 0 17 11.244 0 11.229-17 0-17z"/> <path d="m2045.4 4927.8c-11.253 0-11.23 17 0 17 11.244 0 11.229-17 0-17z"/> <path d="m799.45 4929.2c-4.634-3.021-10.584-1.001-12.57 3.82-2.592 6.294 2.9 12.917 9.51 11.59 7.396-1.512 9.346-11.167 3.06-15.41z"/> <path d="m3535.1 2659.7c11.253 0 11.23-17 0-17-11.245 0-11.229 17 0 17z"/> <path d="m3535.1 2630.7c11.253 0 11.23-17 0-17-11.245 0-11.229 17 0 17z"/> <path d="m3535.1 2688.7c11.253 0 11.23-17 0-17-11.245 0-11.229 17 0 17z"/> <path d="m3535.1 2601.7c11.253 0 11.23-17 0-17-11.245 0-11.229 17 0 17z"/> <path d="m3535.1 2717.7c11.253 0 11.23-17 0-17-11.245 0-11.229 17 0 17z"/> <path d="m3535.1 2572.7c11.253 0 11.23-17 0-17-11.245 0-11.229 17 0 17z"/> <path d="m3535.1 2903.7c-11.244 0-11.229 17 0 17 11.253 0 11.229-17 0-17z"/> <path d="m3535.1 2891.7c11.25 0 11.227-17.01 0-17.01-11.224 0-11.25 17.01 0 17.01z"/> <path d="m3535.1 2804.7c11.25 0 11.227-17.01 0-17.01-11.224 0-11.25 17.01 0 17.01z"/> <path d="m3535.1 2978.7c11.25 0 11.227-17.01 0-17.01-11.224 0-11.25 17.01 0 17.01z"/> <path d="m3535.1 1006.7c11.253 0 11.23-17 0-17-11.244 0-11.229 17 0 17z"/> <path d="m3535.1 2845.7c-11.244 0-11.229 17 0 17 11.253 0 11.229-17 0-17z"/> <path d="m3535.1 2543.7c11.253 0 11.23-17 0-17-11.245 0-11.229 17 0 17z"/> <path d="m3535.1 2932.7c-11.244 0-11.229 17 0 17 11.253 0 11.229-17 0-17z"/> <path d="m3535.1 2746.7c11.253 0 11.23-17 0-17-11.245 0-11.229 17 0 17z"/> <path d="m3535.1 2816.7c-11.244 0-11.229 17 0 17 11.253 0 11.229-17 0-17z"/> <path d="m3535.1 2775.7c11.253 0 11.23-17 0-17-11.245 0-11.229 17 0 17z"/> <path d="m3535.1 3703.7c11.253 0 11.226-17 0-17-11.244 0-11.233 17 0 17z"/> <path d="m3535.1 3848.7c11.253 0 11.226-17 0-17-11.244 0-11.233 17 0 17z"/> <path d="m3535.1 3790.7c11.253 0 11.226-17 0-17-11.244 0-11.233 17 0 17z"/> <path d="m3535.1 3761.7c11.253 0 11.226-17 0-17-11.244 0-11.233 17 0 17z"/> <path d="m3535.1 3877.7c11.253 0 11.226-17 0-17-11.244 0-11.233 17 0 17z"/> <path d="m3535.1 3732.7c11.235 0 11.245-17 0-17-11.244 0-11.233 17 0 17z"/> <path d="m3535.1 3819.7c11.235 0 11.245-17 0-17-11.244 0-11.233 17 0 17z"/> <path d="m3535.1 4005.7c-11.244 0-11.229 17 0 17 11.253 0 11.226-17 0-17z"/> <path d="m3535.1 3993.7c11.235 0 11.245-17 0-17-11.244 0-11.233 17 0 17z"/> <path d="m3535.1 3918.7c-11.244 0-11.229 17 0 17 11.253 0 11.226-17 0-17z"/> <path d="m3535.1 4051.7c11.235 0 11.245-17 0-17-11.244 0-11.233 17 0 17z"/> <path d="m3535.1 3906.7c11.235 0 11.245-17 0-17-11.244 0-11.233 17 0 17z"/> <path d="m3535.1 3964.7c11.235 0 11.245-17 0-17-11.244 0-11.233 17 0 17z"/> <path d="m3535.1 3413.7c11.253 0 11.226-17 0-17-11.244 0-11.233 17 0 17z"/> <path d="m3535.1 3471.7c11.253 0 11.226-17 0-17-11.244 0-11.233 17 0 17z"/> <path d="m3535.1 3500.7c11.253 0 11.226-17 0-17-11.244 0-11.233 17 0 17z"/> <path d="m3535.1 1035.7c11.253 0 11.23-17 0-17-11.244 0-11.229 17 0 17z"/> <path d="m3535.1 3326.7c11.253 0 11.226-17 0-17-11.244 0-11.233 17 0 17z"/> <path d="m3535.1 3297.7c11.253 0 11.226-17 0-17-11.244 0-11.233 17 0 17z"/> <path d="m3535.1 3645.7c11.253 0 11.226-17 0-17-11.244 0-11.233 17 0 17z"/> <path d="m3535.1 3529.7c11.253 0 11.226-17 0-17-11.244 0-11.233 17 0 17z"/> <path d="m3535.1 2514.7c11.253 0 11.23-17 0-17-11.244 1e-3 -11.229 17 0 17z"/> <path d="m3535.1 3616.7c11.253 0 11.226-17 0-17-11.244 0-11.233 17 0 17z"/> <path d="m3535.1 3587.7c11.253 0 11.226-17 0-17-11.244 0-11.233 17 0 17z"/> <path d="m3535.1 3558.7c11.253 0 11.226-17 0-17-11.244 0-11.233 17 0 17z"/> <path d="m3535.1 3384.7c11.253 0 11.226-17 0-17-11.244 0-11.233 17 0 17z"/> <path d="m3535.1 2990.7c-11.267 0-11.212 17 0 17 11.207 0 11.279-17 0-17z"/> <path d="m3535.1 832.74c11.253 0 11.23-17 0-17-11.244 0-11.229 17 0 17z"/> <path d="m3535.1 3048.7c-11.221 0-11.25 17 0 17s11.224-17 0-17z"/> <path d="m3535.1 3077.7c-11.267 0-11.212 17 0 17 11.207 0 11.279-17 0-17z"/> <path d="m3535.1 3019.7c-11.224 0-11.25 17.01 0 17.01 11.249 0 11.227-17.01 0-17.01z"/> <path d="m3535.1 803.74c11.253 0 11.23-17 0-17-11.244 0-11.229 17 0 17z"/> <path d="m3535.1 861.74c11.253 0 11.23-17 0-17-11.244 0-11.229 17 0 17z"/> <path d="m3535.1 977.74c11.253 0 11.23-17 0-17-11.244 0-11.229 17 0 17z"/> <path d="m3535.1 948.74c11.253 0 11.23-17 0-17-11.244 0-11.229 17 0 17z"/> <path d="m3535.1 4080.7c11.235 0 11.245-17 0-17-11.244 0-11.233 17 0 17z"/> <path d="m3535.1 919.74c11.253 0 11.23-17 0-17-11.244 0-11.229 17 0 17z"/> <path d="m3535.1 890.74c11.253 0 11.23-17 0-17-11.244 0-11.229 17 0 17z"/> <path d="m3535.1 3135.7c-11.221 0-11.25 17 0 17s11.224-17 0-17z"/> <path d="m3535.1 3425.7c-11.241 0-11.23 17.01 0 17.01 11.21 0 11.272-17.01 0-17.01z"/> <path d="m3535.1 4150.7c-11.244 0-11.229 17 0 17 11.253 0 11.23-17 0-17z"/> <path d="m3535.1 4179.7c-11.244 0-11.229 17 0 17 11.253 0 11.23-17 0-17z"/> <path d="m3535.1 4208.7c-11.244 0-11.233 17 0 17 11.235 0 11.245-17 0-17z"/> <path d="m3535.1 4138.7c11.235 0 11.245-17 0-17-11.244 0-11.233 17 0 17z"/> <path d="m3535.1 4092.7c-11.244 0-11.229 17 0 17 11.253 1e-3 11.226-17 0-17z"/> <path d="m3535.1 3106.7c-11.224 0-11.25 17.01 0 17.01 11.249 0 11.227-17.01 0-17.01z"/> <path d="m3535.1 3164.7c-11.267 0-11.212 17 0 17 11.207 0 11.279-17 0-17z"/> <path d="m3535.1 3338.7c-11.241 0-11.23 17.01 0 17.01 11.21 0 11.272-17.01 0-17.01z"/> <path d="m3535.1 3193.7c-11.241 0-11.23 17.01 0 17.01 11.21 0 11.272-17.01 0-17.01z"/> <path d="m3535.1 3251.7c-11.241 0-11.23 17.01 0 17.01 11.21 0 11.272-17.01 0-17.01z"/> <path d="m3535.1 3239.7c11.253 0 11.226-17 0-17-11.244 0-11.233 17 0 17z"/> <path d="m3535.1 3674.7c11.253 0 11.226-17 0-17-11.244 0-11.233 17 0 17z"/> <path d="m3535.1 2050.7c11.253 0 11.23-17 0-17-11.244 0-11.229 17 0 17z"/> <path d="m3535.1 2021.7c11.253 0 11.23-17 0-17-11.244 0-11.229 17 0 17z"/> <path d="m3535.1 2079.7c11.253 0 11.23-17 0-17-11.244 0-11.229 17 0 17z"/> <path d="m3535.1 2108.7c11.253 0 11.23-17 0-17-11.244 0-11.229 17 0 17z"/> <path d="m3535.1 1992.7c11.253 0 11.23-17 0-17-11.244 0-11.229 17 0 17z"/> <path d="m3535.1 2137.7c11.253 0 11.23-17 0-17-11.244 0-11.229 17 0 17z"/> <path d="m3535.1 1905.7c11.253 0 11.23-17 0-17-11.244 0-11.229 17 0 17z"/> <path d="m3535.1 1847.7c11.253 0 11.23-17 0-17-11.244 0-11.229 17 0 17z"/> <path d="m3535.1 1876.7c11.253 0 11.23-17 0-17-11.244 0-11.229 17 0 17z"/> <path d="m3535.1 1963.7c11.253 0 11.23-17 0-17-11.244 0-11.229 17 0 17z"/> <path d="m3535.1 1934.7c11.253 0 11.23-17 0-17-11.244 0-11.229 17 0 17z"/> <path d="m3535.1 2166.7c11.253 0 11.23-17 0-17-11.244 0-11.229 17 0 17z"/> <path d="m3535.1 2398.7c11.253 0 11.23-17 0-17-11.244 0-11.229 17 0 17z"/> <path d="m3535.1 2456.7c11.253 0 11.23-17 0-17-11.244 0-11.229 17 0 17z"/> <path d="m3535.1 2427.7c11.253 0 11.23-17 0-17-11.244 0-11.229 17 0 17z"/> <path d="m3535.1 1818.7c11.253 0 11.23-17 0-17-11.244 0-11.229 17 0 17z"/> <path d="m3535.1 2369.7c11.253 0 11.23-17 0-17-11.244 0-11.229 17 0 17z"/> <path d="m3535.1 2195.7c11.253 0 11.23-17 0-17-11.244 0-11.229 17 0 17z"/> <path d="m3535.1 2485.7c11.253 0 11.23-17 0-17-11.244 0-11.229 17 0 17z"/> <path d="m3535.1 1064.7c11.253 0 11.23-17 0-17-11.244 0-11.229 17 0 17z"/> <path d="m3535.1 2224.7c11.253 0 11.23-17 0-17-11.244 0-11.229 17 0 17z"/> <path d="m3535.1 2340.7c11.253 0 11.23-17 0-17-11.244 0-11.229 17 0 17z"/> <path d="m3535.1 2253.7c11.253 0 11.23-17 0-17-11.244 0-11.229 17 0 17z"/> <path d="m3535.1 2311.7c11.253 0 11.23-17 0-17-11.244 0-11.229 17 0 17z"/> <path d="m3535.1 2282.7c11.253 0 11.23-17 0-17-11.244 0-11.229 17 0 17z"/> <path d="m3535.1 1151.7c11.253 0 11.23-17 0-17-11.244 0-11.229 17 0 17z"/> <path d="m3535.1 1325.7c11.253 0 11.23-17 0-17-11.244 0-11.229 17 0 17z"/> <path d="m3535.1 1267.7c11.253 0 11.23-17 0-17-11.244 0-11.229 17 0 17z"/> <path d="m3535.1 1296.7c11.253 0 11.23-17 0-17-11.244 0-11.229 17 0 17z"/> <path d="m3535.1 1354.7c11.253 0 11.23-17 0-17-11.244 0-11.229 17 0 17z"/> <path d="m3535.1 1441.7c11.253 0 11.23-17 0-17-11.244 0-11.229 17 0 17z"/> <path d="m3535.1 1383.7c11.253 0 11.23-17 0-17-11.244 0-11.229 17 0 17z"/> <path d="m3535.1 1412.7c11.253 0 11.23-17 0-17-11.244 0-11.229 17 0 17z"/> <path d="m3535.1 1122.7c11.253 0 11.23-17 0-17-11.244 0-11.229 17 0 17z"/> <path d="m3535.1 1093.7c11.253 0 11.23-17 0-17-11.244 0-11.229 17 0 17z"/> <path d="m3535.1 1209.7c11.253 0 11.23-17 0-17-11.244 0-11.229 17 0 17z"/> <path d="m3535.1 1180.7c11.253 0 11.23-17 0-17-11.244 0-11.229 17 0 17z"/> <path d="m3535.1 1238.7c11.253 0 11.23-17 0-17-11.244 0-11.229 17 0 17z"/> <path d="m3535.1 1528.7c11.253 0 11.23-17 0-17-11.244 0-11.229 17 0 17z"/> <path d="m3535.1 1673.7c11.253 0 11.23-17 0-17-11.244 0-11.229 17 0 17z"/> <path d="m3535.1 1615.7c11.253 0 11.23-17 0-17-11.244 0-11.229 17 0 17z"/> <path d="m3535.1 1470.7c11.253 0 11.23-17 0-17-11.244 0-11.229 17 0 17z"/> <path d="m3535.1 1644.7c11.253 0 11.23-17 0-17-11.244 0-11.229 17 0 17z"/> <path d="m3535.1 1731.7c11.253 0 11.23-17 0-17-11.244 0-11.229 17 0 17z"/> <path d="m3535.1 1760.7c11.253 0 11.23-17 0-17-11.244 0-11.229 17 0 17z"/> <path d="m3535.1 1702.7c11.253 0 11.23-17 0-17-11.244 0-11.229 17 0 17z"/> <path d="m3535.1 1789.7c11.253 0 11.23-17 0-17-11.244 0-11.229 17 0 17z"/> <path d="m3535.1 1499.7c11.253 0 11.23-17 0-17-11.244 0-11.229 17 0 17z"/> <path d="m3535.1 1557.7c11.253 0 11.23-17 0-17-11.244 0-11.229 17 0 17z"/> <path d="m3535.1 1586.7c11.253 0 11.23-17 0-17-11.244 0-11.229 17 0 17z"/> <path d="m63.744 3558.7c11.233 0 11.215-17 0-17-11.218 0-11.269 17 0 17z"/> <path d="m63.744 3587.7c11.233 0 11.215-17 0-17-11.218 0-11.269 17 0 17z"/> <path d="m63.744 3529.7c11.233 0 11.215-17 0-17-11.218 0-11.269 17 0 17z"/> <path d="m63.744 3616.7c11.233 0 11.215-17 0-17-11.218 0-11.269 17 0 17z"/> <path d="m63.744 3454.7c-11.219 0-11.269 17 0 17 11.233 0 11.216-17 0-17z"/> <path d="m63.744 3500.7c11.233 0 11.215-17 0-17-11.218 0-11.269 17 0 17z"/> <path d="m63.744 3645.7c11.233 0 11.215-17 0-17-11.218 0-11.269 17 0 17z"/> <path d="m63.744 3732.7c11.233 0 11.215-17 0-17-11.218 0-11.269 17 0 17z"/> <path d="m63.744 3703.7c11.233 0 11.215-17 0-17-11.218 0-11.269 17 0 17z"/> <path d="m63.744 3674.7c11.233 0 11.215-17 0-17-11.218 0-11.269 17 0 17z"/> <path d="m63.744 4150.7c-11.255 0-11.229 17 0 17 11.236 0 11.218-17 0-17z"/> <path d="m63.744 3413.7c11.233 0 11.215-17 0-17-11.218 0-11.269 17 0 17z"/> <path d="m63.744 3297.7c11.233 0 11.215-17 0-17-11.218 0-11.269 17 0 17z"/> <path d="m63.744 4179.7c-11.255 0-11.226 17 0 17 11.236 0 11.218-17 0-17z"/> <path d="m63.744 3744.7c-11.232 0-11.243 17 0 17 11.233 0 11.216-17 0-17z"/> <path d="m63.744 4208.7c-11.255 0-11.226 17 0 17 11.236 0 11.218-17 0-17z"/> <path d="m63.744 3355.7c11.233 0 11.215-17 0-17-11.218 0-11.269 17 0 17z"/> <path d="m63.744 3384.7c11.233 0 11.215-17 0-17-11.218 0-11.269 17 0 17z"/> <path d="m63.744 3309.7c-11.232 0-11.247 17.01 0 17.01 11.236 0 11.217-17.01 0-17.01z"/> <path d="m63.744 3251.7c-11.219 0-11.269 17 0 17 11.233 0 11.216-17 0-17z"/> <path d="m63.744 1267.7c11.235 0 11.218-17 0-17-11.252 0-11.227 17 0 17z"/> <path d="m63.744 1992.7c11.235 0 11.218-17 0-17-11.252 0-11.227 17 0 17z"/> <path d="m63.744 2021.7c11.235 0 11.218-17 0-17-11.252 0-11.227 17 0 17z"/> <path d="m63.744 2050.7c11.235 0 11.218-17 0-17-11.252 0-11.227 17 0 17z"/> <path d="m63.744 1934.7c11.235 0 11.218-17 0-17-11.252 0-11.227 17 0 17z"/> <path d="m63.744 1963.7c11.235 0 11.218-17 0-17-11.252 0-11.227 17 0 17z"/> <path d="m63.744 1905.7c11.235 0 11.218-17 0-17-11.252 0-11.227 17 0 17z"/> <path d="m63.744 2079.7c11.235 0 11.218-17 0-17-11.252 0-11.227 17 0 17z"/> <path d="m63.744 2108.7c11.235 0 11.218-17 0-17-11.252 0-11.227 17 0 17z"/> <path d="m63.744 1557.7c11.235 0 11.218-17 0-17-11.252 0-11.227 17 0 17z"/> <path d="m63.744 2224.7c11.235 0 11.218-17 0-17-11.252 0-11.227 17 0 17z"/> <path d="m63.744 2166.7c11.235 0 11.218-17 0-17-11.252 0-11.227 17 0 17z"/> <path d="m63.744 2253.7c11.235 0 11.218-17 0-17-11.252 0-11.227 17 0 17z"/> <path d="m63.744 2137.7c11.235 0 11.218-17 0-17-11.252 0-11.227 17 0 17z"/> <path d="m63.744 1673.7c11.235 0 11.218-17 0-17-11.252 0-11.227 17 0 17z"/> <path d="m63.744 1644.7c11.235 0 11.218-17 0-17-11.252 0-11.227 17 0 17z"/> <path d="m63.744 1615.7c11.235 0 11.218-17 0-17-11.252 0-11.227 17 0 17z"/> <path d="m63.744 1586.7c11.235 0 11.218-17 0-17-11.252 0-11.227 17 0 17z"/> <path d="m63.744 1702.7c11.235 0 11.218-17 0-17-11.252 0-11.227 17 0 17z"/> <path d="m63.744 1760.7c11.235 0 11.218-17 0-17-11.252 0-11.227 17 0 17z"/> <path d="m63.744 1847.7c11.235 0 11.218-17 0-17-11.252 0-11.227 17 0 17z"/> <path d="m63.744 1818.7c11.235 0 11.218-17 0-17-11.252 0-11.227 17 0 17z"/> <path d="m63.744 1731.7c11.235 0 11.218-17 0-17-11.252 0-11.227 17 0 17z"/> <path d="m63.744 1876.7c11.235 0 11.218-17 0-17-11.252 0-11.227 17 0 17z"/> <path d="m63.744 1789.7c11.235 0 11.218-17 0-17-11.252 0-11.227 17 0 17z"/> <path d="m63.744 2195.7c11.235 0 11.218-17 0-17-11.252 0-11.227 17 0 17z"/> <path d="m63.744 2717.7c11.232 0 11.219-17 0-17-11.255 0-11.225 17 0 17z"/> <path d="m63.744 2746.7c11.232 0 11.219-17 0-17-11.255 0-11.225 17 0 17z"/> <path d="m63.744 2804.7c11.232 0 11.219-17 0-17-11.255 0-11.225 17 0 17z"/> <path d="m63.744 2775.7c11.232 0 11.219-17 0-17-11.255 0-11.225 17 0 17z"/> <path d="m63.744 2659.7c11.232 0 11.219-17 0-17-11.255 0-11.225 17 0 17z"/> <path d="m63.744 2630.7c11.232 0 11.219-17 0-17-11.255 0-11.225 17 0 17z"/> <path d="m63.744 2688.7c11.232 0 11.219-17 0-17-11.255 0-11.225 17 0 17z"/> <path d="m63.744 3094.7c11.235 0 11.215-16.99 0-16.99-11.216 0-11.272 16.99 0 16.99z"/> <path d="m63.744 2920.7c11.235 0 11.215-16.99 0-16.99-11.216 0-11.272 16.99 0 16.99z"/> <path d="m63.744 2862.7c11.232 0 11.219-17 0-17-11.255 0-11.225 17 0 17z"/> <path d="m63.744 2816.7c-11.232 0-11.242 17.01 0 17.01 11.236 0 11.213-17.01 0-17.01z"/> <path d="m63.744 2891.7c11.232 0 11.219-17 0-17-11.255 0-11.225 17 0 17z"/> <path d="m63.744 2311.7c11.235 0 11.218-17 0-17-11.252 0-11.227 17 0 17z"/> <path d="m63.744 2369.7c11.235 0 11.218-17 0-17-11.252 0-11.227 17 0 17z"/> <path d="m63.744 2398.7c11.235 0 11.218-17 0-17-11.252 0-11.227 17 0 17z"/> <path d="m63.744 2427.7c11.235 0 11.218-17 0-17-11.252 0-11.227 17 0 17z"/> <path d="m63.744 2340.7c11.235 0 11.218-17 0-17-11.252 0-11.227 17 0 17z"/> <path d="m63.744 2282.7c11.235 0 11.218-17 0-17-11.252 0-11.227 17 0 17z"/> <path d="m63.744 2601.7c11.232 0 11.219-17 0-17-11.255 0-11.225 17 0 17z"/> <path d="m63.744 2572.7c11.232 0 11.219-17 0-17-11.255 0-11.225 17 0 17z"/> <path d="m63.744 2543.7c11.232 0 11.219-17 0-17-11.255 0-11.225 17 0 17z"/> <path d="m63.744 2456.7c11.235 0 11.218-17 0-17-11.252 0-11.227 17 0 17z"/> <path d="m63.744 2514.7c11.233 0 11.219-17 0-17-11.252 1e-3 -11.227 17 0 17z"/> <path d="m63.744 2485.7c11.235 0 11.218-17 0-17-11.252 0-11.227 17 0 17z"/> <path d="m63.744 1383.7c11.235 0 11.218-17 0-17-11.252 0-11.227 17 0 17z"/> <path d="m63.744 3106.7c-11.255 0-11.226 17 0 17 11.233 0 11.22-17 0-17z"/> <path d="m63.744 832.74c11.235 0 11.218-17 0-17-11.252 0-11.227 17 0 17z"/> <path d="m63.744 3164.7c-11.232 0-11.247 17.01 0 17.01 11.236 0 11.217-17.01 0-17.01z"/> <path d="m63.744 3193.7c-11.232 0-11.247 17.01 0 17.01 11.236 0 11.217-17.01 0-17.01z"/> <path d="m63.744 3222.7c-11.255 0-11.227 16.99 0 16.99 11.236 0 11.219-16.99 0-16.99z"/> <path d="m63.744 3425.7c-11.255 0-11.227 16.99 0 16.99 11.236 0 11.219-16.99 0-16.99z"/> <path d="m63.744 3036.7c11.233 0 11.215-17 0-17-11.218 0-11.269 17 0 17z"/> <path d="m63.744 2990.7c-11.232 0-11.247 17.01 0 17.01 11.236 0 11.217-17.01 0-17.01z"/> <path d="m63.744 3947.7c-11.255 0-11.226 17 0 17 11.236 0 11.218-17 0-17z"/> <path d="m63.744 2949.7c11.232 0 11.219-17 0-17-11.255 0-11.225 17 0 17z"/> <path d="m63.744 3048.7c-11.255 0-11.227 16.99 0 16.99 11.236 0 11.219-16.99 0-16.99z"/> <path d="m63.744 2978.7c11.232 0 11.219-17 0-17-11.255 0-11.225 17 0 17z"/> <path d="m63.744 3135.7c-11.232 0-11.242 17.01 0 17.01 11.236 0 11.213-17.01 0-17.01z"/> <path d="m63.744 3976.7c-11.255 0-11.229 17 0 17 11.236 0 11.218-17 0-17z"/> <path d="m63.744 3918.7c-11.232 0-11.243 17 0 17 11.233 0 11.216-17 0-17z"/> <path d="m63.744 3906.7c11.233 0 11.215-17 0-17-11.218 0-11.269 17 0 17z"/> <path d="m63.744 3848.7c11.233 0 11.215-17 0-17-11.218 0-11.269 17 0 17z"/> <path d="m63.744 3819.7c11.233 0 11.215-17 0-17-11.218 0-11.269 17 0 17z"/> <path d="m63.744 3877.7c11.233 0 11.215-17 0-17-11.218 0-11.269 17 0 17z"/> <path d="m63.744 4005.7c-11.255 0-11.229 17 0 17 11.236 0 11.218-17 0-17z"/> <path d="m63.744 4063.7c-11.232 0-11.243 17 0 17 11.233 0 11.216-17 0-17z"/> <path d="m63.744 4121.7c-11.255 0-11.226 17 0 17 11.236 0 11.218-17 0-17z"/> <path d="m63.744 4092.7c-11.232 0-11.243 17 0 17 11.233 1e-3 11.216-17 0-17z"/> <path d="m63.744 4034.7c-11.219 0-11.269 17 0 17 11.233 0 11.216-17 0-17z"/> <path d="m63.744 1354.7c11.235 0 11.218-17 0-17-11.252 0-11.227 17 0 17z"/> <path d="m63.744 1528.7c11.235 0 11.218-17 0-17-11.252 0-11.227 17 0 17z"/> <path d="m63.744 1296.7c11.235 0 11.218-17 0-17-11.252 0-11.227 17 0 17z"/> <path d="m63.744 1325.7c11.235 0 11.218-17 0-17-11.252 0-11.227 17 0 17z"/> <path d="m63.744 803.74c11.235 0 11.218-17 0-17-11.252 0-11.227 17 0 17z"/> <path d="m63.744 1209.7c11.235 0 11.218-17 0-17-11.252 0-11.227 17 0 17z"/> <path d="m63.744 3790.7c11.233 0 11.215-17 0-17-11.218 0-11.269 17 0 17z"/> <path d="m63.744 1180.7c11.235 0 11.218-17 0-17-11.252 0-11.227 17 0 17z"/> <path d="m63.744 1470.7c11.235 0 11.218-17 0-17-11.252 0-11.227 17 0 17z"/> <path d="m63.744 1499.7c11.235 0 11.218-17 0-17-11.252 0-11.227 17 0 17z"/> <path d="m63.744 1441.7c11.235 0 11.218-17 0-17-11.252 0-11.227 17 0 17z"/> <path d="m63.744 1412.7c11.235 0 11.218-17 0-17-11.252 0-11.227 17 0 17z"/> <path d="m63.744 1238.7c11.235 0 11.218-17 0-17-11.252 0-11.227 17 0 17z"/> <path d="m63.744 919.74c11.235 0 11.218-17 0-17-11.252 0-11.227 17 0 17z"/> <path d="m63.744 948.74c11.235 0 11.218-17 0-17-11.252 0-11.227 17 0 17z"/> <path d="m63.744 861.74c11.235 0 11.218-17 0-17-11.252 0-11.227 17 0 17z"/> <path d="m63.744 890.74c11.235 0 11.218-17 0-17-11.252 0-11.227 17 0 17z"/> <path d="m63.744 977.74c11.235 0 11.218-17 0-17-11.252 0-11.227 17 0 17z"/> <path d="m63.744 1006.7c11.235 0 11.218-17 0-17-11.252 0-11.227 17 0 17z"/> <path d="m63.744 1093.7c11.235 0 11.218-17 0-17-11.252 0-11.227 17 0 17z"/> <path d="m63.744 1122.7c11.235 0 11.218-17 0-17-11.252 0-11.227 17 0 17z"/> <path d="m63.744 1035.7c11.235 0 11.218-17 0-17-11.252 0-11.227 17 0 17z"/> <path d="m63.744 1064.7c11.235 0 11.218-17 0-17-11.252 0-11.227 17 0 17z"/> <path d="m63.744 1151.7c11.235 0 11.218-17 0-17-11.252 0-11.227 17 0 17z"/> </svg>