<?xml version="1.0" standalone="no"?> <!DOCTYPE svg PUBLIC "-//W3C//DTD SVG 20010904//EN" "http://www.w3.org/TR/2001/REC-SVG-20010904/DTD/svg10.dtd"> <svg version="1.0" xmlns="http://www.w3.org/2000/svg" width="600.000000pt" height="400.000000pt" viewBox="0 0 600.000000 400.000000" preserveAspectRatio="xMidYMid meet"> <g transform="translate(0.000000,400.000000) scale(0.100000,-0.100000)" fill="#ffffff" stroke="none"> <path d="M4040 2470 c8 -5 20 -10 25 -10 6 0 3 5 -5 10 -8 5 -19 10 -25 10 -5 0 -3 -5 5 -10z"/> <path d="M4005 2440 c-35 -22 -91 -38 -82 -24 11 18 -68 2 -89 -18 -12 -10 -25 -18 -30 -17 -21 4 -28 -2 -14 -11 10 -7 -6 -8 -52 -4 -43 4 -68 3 -68 -3 0 -20 -119 -84 -159 -86 -32 -2 -37 -5 -33 -21 4 -13 1 -17 -7 -12 -6 4 -10 4 -9 -1 5 -16 -46 -63 -68 -63 -12 0 -43 -9 -67 -19 -25 -11 -58 -22 -75 -24 -16 -3 -48 -17 -71 -31 -23 -15 -55 -28 -71 -29 -15 -1 -26 -5 -24 -9 3 -4 -5 -12 -16 -18 -12 -6 -20 -7 -20 -1 0 5 5 12 10 14 6 3 5 4 -2 3 -7 -2 -12 -11 -12 -20 1 -11 -12 -22 -37 -33 -21 -8 -39 -19 -39 -23 0 -5 -31 -8 -68 -8 -44 1 -78 -5 -99 -16 -36 -18 -63 -21 -63 -6 0 6 -5 10 -11 10 -5 0 -8 -4 -4 -9 3 -5 -8 -3 -25 5 -43 22 -134 22 -158 1 -10 -9 -22 -14 -25 -10 -4 3 -7 0 -7 -8 0 -11 -2 -11 -10 1 -6 10 -10 11 -10 3 0 -8 -14 -13 -34 -13 -44 0 -68 9 -59 24 3 6 3 8 -2 4 -4 -4 -19 1 -33 12 -19 15 -33 18 -62 14 -23 -4 -40 -2 -44 5 -4 6 -30 11 -57 11 -31 0 -48 -4 -44 -10 3 -5 -1 -10 -9 -10 -20 0 -78 35 -70 42 3 3 -11 8 -30 10 -19 2 -34 1 -33 -2 1 -3 -2 -7 -8 -8 -5 -2 -18 -8 -28 -13 -12 -7 -24 -6 -37 4 -11 8 -18 16 -16 18 2 2 -21 5 -52 7 -31 1 -59 6 -62 11 -3 4 -23 16 -44 26 -34 16 -37 20 -20 27 14 6 12 7 -8 3 -33 -6 -89 5 -82 16 3 5 -2 9 -11 9 -9 0 -13 5 -9 11 4 7 1 10 -7 7 -7 -2 -22 4 -33 14 -11 10 -31 18 -45 18 -21 0 -23 2 -11 10 9 6 10 10 3 10 -6 0 -15 -4 -18 -10 -7 -11 -45 7 -58 27 -4 7 -14 10 -21 7 -8 -3 -17 -1 -21 5 -3 6 -22 11 -42 11 -20 0 -53 5 -74 12 -45 13 -109 -2 -146 -35 -17 -15 -31 -18 -60 -14 -22 4 -32 3 -25 -2 11 -6 10 -10 -5 -16 -10 -5 -21 -7 -25 -7 -5 1 -8 -2 -8 -7 0 -14 -31 -22 -44 -12 -6 5 -27 12 -46 16 -19 4 -42 12 -52 18 -13 9 -22 7 -40 -9 -41 -36 -148 -70 -132 -41 4 7 3 8 -2 4 -5 -5 -9 -14 -9 -20 0 -7 -14 -11 -35 -9 -22 1 -30 -1 -22 -6 9 -6 -7 -11 -44 -15 -32 -3 -60 -4 -63 -2 -2 3 2 13 10 22 13 17 13 17 -7 1 -26 -22 -41 -24 -20 -2 9 8 16 20 16 27 0 6 -7 2 -15 -9 -14 -18 -16 -18 -28 -2 -8 10 -16 16 -18 14 -9 -8 -89 -13 -84 -6 3 5 -8 7 -24 5 -24 -3 -34 2 -50 23 -19 26 -23 27 -105 25 -47 -1 -94 -2 -103 -3 -10 0 -37 1 -61 4 -24 2 -41 2 -38 -2 3 -3 -2 -10 -11 -17 -8 -6 -14 -17 -12 -24 3 -9 12 -7 30 8 17 13 30 17 40 11 8 -5 59 -7 114 -4 l100 6 47 -37 c44 -34 48 -36 85 -26 57 16 77 13 88 -11 13 -30 59 -46 85 -30 11 6 32 9 48 6 17 -4 32 -1 36 5 4 6 16 11 26 11 11 0 34 6 52 14 18 8 44 17 58 20 14 3 35 15 48 26 20 19 26 20 64 10 24 -7 53 -18 65 -25 19 -13 27 -12 68 10 25 14 55 25 66 25 12 0 33 8 47 19 53 36 95 45 157 33 31 -7 61 -9 66 -7 4 3 30 -8 57 -25 27 -16 62 -30 77 -30 15 0 48 -15 74 -33 25 -18 66 -39 91 -47 25 -7 63 -24 86 -37 22 -13 52 -23 65 -23 13 0 42 -9 63 -21 40 -21 96 -20 123 3 9 7 24 1 52 -21 39 -31 40 -32 77 -16 42 17 84 20 84 5 0 -5 20 -10 45 -10 32 0 57 -8 86 -27 34 -22 49 -26 101 -24 48 2 65 6 76 22 18 26 99 26 149 -1 47 -25 64 -25 110 0 26 14 57 20 101 20 68 0 92 10 170 68 24 17 51 32 61 32 9 0 32 11 51 25 19 14 48 25 65 25 17 0 40 7 52 15 19 14 98 32 117 27 11 -3 37 28 60 71 15 26 24 33 42 29 23 -4 136 56 161 86 10 12 20 13 58 3 45 -11 48 -11 81 19 30 26 43 30 91 30 39 0 66 6 90 21 l34 21 32 -28 c17 -16 38 -37 47 -47 26 -31 79 -36 123 -14 32 17 50 19 112 13 49 -4 76 -3 80 4 4 7 33 9 78 6 40 -3 75 -5 79 -6 3 0 14 -19 24 -43 l18 -43 52 4 c48 4 55 2 104 -37 29 -23 59 -40 65 -37 58 22 95 28 108 18 10 -8 17 -8 24 -1 6 6 44 12 84 14 50 1 89 9 119 23 66 31 93 28 141 -15 33 -30 50 -38 81 -39 22 0 43 -4 46 -10 9 -12 83 -15 98 -3 7 6 21 0 40 -17 16 -14 42 -32 58 -39 25 -11 34 -10 68 9 22 11 44 29 49 39 9 17 12 17 39 1 15 -10 33 -28 39 -41 6 -12 17 -23 24 -23 7 0 29 -15 49 -33 28 -25 41 -31 57 -25 26 9 28 32 3 24 -13 -4 -34 8 -69 41 -64 62 -91 83 -104 83 -5 0 -8 4 -5 8 2 4 -4 8 -15 8 -10 0 -19 -4 -19 -9 0 -4 -5 -5 -12 -1 -6 4 -8 3 -5 -3 7 -11 -15 -34 -50 -52 -17 -9 -28 -9 -44 -1 -31 17 -59 43 -54 50 3 4 -26 7 -63 5 -76 -2 -104 3 -96 17 4 6 -7 7 -28 3 -25 -5 -38 -2 -50 12 -9 10 -17 22 -17 28 0 5 -23 15 -51 21 -51 11 -96 9 -116 -8 -6 -4 -20 -6 -30 -2 -14 4 -15 3 -6 -4 11 -7 10 -10 -3 -16 -27 -10 -60 -7 -73 6 -8 8 -15 9 -20 3 -10 -14 -26 -17 -112 -25 -41 -4 -84 -11 -94 -15 -13 -6 -17 -5 -13 2 4 6 -4 14 -19 17 -19 5 -24 11 -19 24 3 9 3 14 0 10 -3 -3 -27 2 -53 12 -35 13 -50 15 -64 7 -14 -9 -21 -8 -32 8 -9 11 -14 25 -12 31 2 6 -4 17 -14 24 -11 8 -17 17 -14 22 3 4 -5 4 -17 0 -12 -5 -42 -4 -66 2 -31 7 -53 6 -72 -1 -15 -5 -69 -9 -119 -9 -50 1 -89 -1 -86 -3 2 -3 -5 -10 -16 -16 -29 -15 -80 -7 -80 13 0 8 -3 12 -6 9 -4 -3 -15 5 -26 18 -11 14 -26 25 -34 25 -8 0 -12 5 -9 10 3 6 2 10 -4 10 -5 0 -15 2 -23 4 -7 2 -26 -4 -43 -14z"/> <path d="M4568 2403 c7 -3 16 -2 19 1 4 3 -2 6 -13 5 -11 0 -14 -3 -6 -6z"/> <path d="M3761 2391 c-8 -5 -9 -11 -3 -15 5 -3 12 1 16 9 6 17 6 18 -13 6z"/> <path d="M3890 2229 c0 -5 5 -7 10 -4 6 3 10 8 10 11 0 2 -4 4 -10 4 -5 0 -10 -5 -10 -11z"/> <path d="M5530 2230 c0 -5 5 -10 11 -10 5 0 7 5 4 10 -3 6 -8 10 -11 10 -2 0 -4 -4 -4 -10z"/> <path d="M5270 2190 c0 -5 5 -10 11 -10 5 0 7 5 4 10 -3 6 -8 10 -11 10 -2 0 -4 -4 -4 -10z"/> <path d="M4810 2160 c0 -6 7 -10 15 -10 8 0 15 2 15 4 0 2 -7 6 -15 10 -8 3 -15 1 -15 -4z"/> <path d="M4948 2153 c12 -2 30 -2 40 0 9 3 -1 5 -23 4 -22 0 -30 -2 -17 -4z"/> <path d="M3460 2099 c0 -5 5 -7 10 -4 6 3 10 8 10 11 0 2 -4 4 -10 4 -5 0 -10 -5 -10 -11z"/> <path d="M5960 2100 c0 -5 5 -10 11 -10 5 0 7 5 4 10 -3 6 -8 10 -11 10 -2 0 -4 -4 -4 -10z"/> <path d="M3334 2093 c10 -11 37 -12 30 -2 -3 5 -12 9 -21 9 -9 0 -13 -3 -9 -7z"/> <path d="M2020 2070 c-8 -5 -10 -10 -5 -10 6 0 17 5 25 10 8 5 11 10 5 10 -5 0 -17 -5 -25 -10z"/> <path d="M900 2060 c0 -5 7 -10 16 -10 8 0 12 5 9 10 -3 6 -10 10 -16 10 -5 0 -9 -4 -9 -10z"/> <path d="M173 2033 c9 -2 23 -2 30 0 6 3 -1 5 -18 5 -16 0 -22 -2 -12 -5z"/> <path d="M1603 2033 c15 -2 39 -2 55 0 15 2 2 4 -28 4 -30 0 -43 -2 -27 -4z"/> <path d="M1708 2023 c6 -2 18 -2 25 0 6 3 1 5 -13 5 -14 0 -19 -2 -12 -5z"/> <path d="M2208 2023 c7 -3 16 -2 19 1 4 3 -2 6 -13 5 -11 0 -14 -3 -6 -6z"/> <path d="M495 2010 c11 -5 34 -8 50 -8 l30 0 -30 8 c-16 4 -39 8 -50 8 l-20 1 20 -9z"/> <path d="M5830 2000 c-9 -6 -10 -10 -3 -10 6 0 15 5 18 10 8 12 4 12 -15 0z"/> <path d="M608 1993 c6 -2 18 -2 25 0 6 3 1 5 -13 5 -14 0 -19 -2 -12 -5z"/> <path d="M718 1993 c6 -2 18 -2 25 0 6 3 1 5 -13 5 -14 0 -19 -2 -12 -5z"/> <path d="M5743 1993 c9 -2 23 -2 30 0 6 3 -1 5 -18 5 -16 0 -22 -2 -12 -5z"/> <path d="M1870 1977 c27 -15 36 -14 25 2 -3 6 -16 11 -28 11 -21 0 -21 -1 3 -13z"/> <path d="M2074 1934 c-18 -14 -18 -15 4 -4 12 6 22 13 22 15 0 8 -5 6 -26 -11z"/> <path d="M2345 1860 c3 -5 10 -10 16 -10 5 0 9 5 9 10 0 6 -7 10 -16 10 -8 0 -12 -4 -9 -10z"/> <path d="M2508 1863 c6 -2 18 -2 25 0 6 3 1 5 -13 5 -14 0 -19 -2 -12 -5z"/> <path d="M2460 1850 c0 -5 7 -7 15 -4 8 4 15 8 15 10 0 2 -7 4 -15 4 -8 0 -15 -4 -15 -10z"/> <path d="M2618 1843 c7 -3 16 -2 19 1 4 3 -2 6 -13 5 -11 0 -14 -3 -6 -6z"/> </g> </svg>